<?xml version="1.0" standalone="no"?>
<!DOCTYPE svg PUBLIC "-//W3C//DTD SVG 1.1//EN" "http://www.w3.org/Graphics/SVG/1.1/DTD/svg11.dtd" >
<svg xmlns="http://www.w3.org/2000/svg">
<metadata></metadata>
<defs>
<font id="steelfishoutline" horiz-adv-x="663" >
<font-face units-per-em="2048" ascent="1743" descent="-305" />
<missing-glyph horiz-adv-x="292" />
<glyph unicode="&#x28;C&#x29;" horiz-adv-x="1134" d="M35 514v748q0 143 31.5 244.5t96 166t165 93t239.5 28.5q137 0 238.5 -29.5t167 -93t97.5 -165t32 -244.5v-748q0 -145 -32 -245.5t-97.5 -165t-165.5 -93t-240 -28.5q-139 0 -239.5 28.5t-165 93t-96 165t-31.5 245.5zM115 514q0 -246 108.5 -349.5t343.5 -103.5 q236 0 345.5 103.5t109.5 349.5v748q0 244 -109.5 348t-345.5 104t-344 -103.5t-108 -348.5v-748zM236 498v778q0 92 17 153.5t56 98.5t102.5 53t155.5 16t155.5 -16t102.5 -53t56.5 -98.5t17.5 -153.5v-778q0 -170 -73.5 -245t-258.5 -75q-182 0 -256.5 75t-74.5 245z M406 549q0 -90 41.5 -131t121.5 -41q82 0 116 42t34 132v211h-105v-213q0 -57 -45 -57q-47 0 -47 57v694q0 59 47 60q45 0 45 -60v-182h105v182q0 174 -150 174q-164 0 -163 -176v-692z" />
<glyph unicode="&#x28;R&#x29;" horiz-adv-x="1134" d="M33 514v748q0 287 129 409.5t403 122.5q139 0 239.5 -28.5t166 -93t97.5 -166t32 -244.5v-748q0 -145 -32 -245.5t-97.5 -165t-165.5 -93t-240 -28.5q-139 0 -239.5 28.5t-165 93t-96 165t-31.5 245.5zM113 514q0 -246 108.5 -349.5t343.5 -103.5q236 0 345.5 103.5 t109.5 349.5v748q0 246 -109.5 349t-345.5 103q-233 0 -342.5 -104.5t-109.5 -347.5v-748zM236 498v778q0 92 17 153.5t55 98.5t101.5 53t155.5 16t156.5 -16t103.5 -53t56.5 -98.5t17.5 -153.5v-778q0 -86 -17.5 -146.5t-56.5 -98.5t-103.5 -56.5t-156.5 -18.5 q-182 0 -255.5 75t-73.5 245zM408 387h114v453h45q18 -113 32.5 -224.5t27.5 -228.5h129q-16 119 -35 238.5t-43 238.5q66 35 65 148v209q0 100 -43 142t-135 42h-157v-1018zM522 950v338h43q39 0 50.5 -22.5t11.5 -67.5v-184q0 -63 -62 -64h-43z" />
<glyph horiz-adv-x="0" />
<glyph unicode="&#xd;" horiz-adv-x="292" />
<glyph horiz-adv-x="268" />
<glyph unicode=" "  horiz-adv-x="292" />
<glyph unicode="&#x09;" horiz-adv-x="292" />
<glyph unicode="&#xa0;" horiz-adv-x="292" />
<glyph unicode="!" horiz-adv-x="450" d="M53 78v215q0 45 41 69q-6 8 -6 25l-35 586v723q0 35 22.5 57.5t55.5 22.5h188q33 0 55.5 -22.5t22.5 -57.5v-719l-37 -590q0 -16 -6 -25q18 -10 30.5 -28.5t12.5 -40.5v-215q0 -33 -22.5 -55.5t-55.5 -22.5h-188q-33 0 -55.5 22.5t-22.5 55.5zM131 78h188v215h-188v-215z M131 975l37 -584h113l38 588v717h-188v-721z" />
<glyph unicode="&#x22;" horiz-adv-x="653" d="M35 1505v191q0 35 23.5 57.5t56.5 22.5h161q31 0 50 -19q20 18 49 19h164q33 0 55 -22.5t22 -57.5v-191l-34 -266q-4 -29 -29 -49.5t-49 -20.5h-92q-31 0 -53.5 20.5t-26.5 49.5l-6 43l-7 -43q-4 -29 -26.5 -49.5t-50.5 -20.5h-92q-29 0 -52.5 20.5t-25.5 49.5zM115 1516 l35 -267h92l34 267v180h-161v-180zM375 1516l37 -267h92l35 267v180h-164v-180z" />
<glyph unicode="#" horiz-adv-x="899" d="M16 649v156q0 33 22.5 55.5t55.5 22.5h72l6 55h-45q-33 0 -55.5 22.5t-22.5 55.5v155q0 33 22.5 56.5t55.5 23.5h94q18 115 36.5 227.5t35.5 229.5q4 29 26.5 48.5t51.5 19.5h125q33 0 54 -20.5t23 -53.5q6 33 30 53.5t52 20.5h121q41 0 60.5 -27t19.5 -63l-72 -435h21 q33 0 55.5 -23.5t22.5 -56.5v-155q0 -33 -22.5 -55.5t-55.5 -22.5h-70l-8 -55h39q35 0 57.5 -22.5t22.5 -55.5v-156q0 -33 -22.5 -56.5t-57.5 -23.5h-90l-76 -501q-4 -29 -27.5 -48.5t-52.5 -19.5h-119q-35 0 -58.5 21.5t-23.5 54.5q-6 -35 -29.5 -55.5t-51.5 -20.5h-117 q-35 0 -58.5 21.5t-23.5 54.5q0 4 1 7t1 7l76 479h-23q-33 0 -55.5 23.5t-22.5 56.5zM94 649h115l-88 -571h117l90 571h164l-91 -571h119l90 571h156v156h-131l33 211h137v155h-113l84 525h-121l-84 -525h-159l84 525h-125l-80 -525h-164v-155h139l-35 -211h-137v-156z M352 805l33 211h164l-33 -211h-164z" />
<glyph unicode="$" horiz-adv-x="673" d="M33 365v307q0 33 23.5 56.5t56.5 23.5h118v12l-43 47q-49 49 -78.5 89t-47 80t-23.5 87t-6 113v231q0 139 49 219t143 111v47q0 33 23.5 55.5t56.5 22.5h62q33 0 55 -22.5t22 -55.5v-47q94 -31 141.5 -111t47.5 -219v-258q0 -35 -22.5 -57.5t-55.5 -22.5h-119v-49 q66 -61 106 -107.5t61.5 -94.5t28.5 -105.5t7 -138.5v-213q0 -268 -195 -334v-56q0 -33 -22.5 -55t-54.5 -22h-62q-33 0 -56.5 22.5t-23.5 54.5v58q-98 31 -145 115.5t-47 216.5zM113 365q0 -119 46 -187.5t146 -79.5v-123h62v121q98 10 146 79t48 190v213q0 72 -5 121 t-20.5 86.5t-41 69.5t-66.5 71l-70 65v522q61 -16 62 -88v-272h135v258q0 127 -45 190.5t-143 73.5v113h-62v-113q-94 -10 -143 -74.5t-49 -189.5v-231q0 -55 5 -95.5t19.5 -76t40 -69.5t66.5 -75l67 -67v-535q-35 6 -48 29.5t-13 70.5v310h-137v-307zM250 1176v249 q0 76 61 88v-483q-35 35 -48 66.5t-13 79.5zM358 262v496q37 -47 48.5 -93.5t11.5 -117.5v-199q0 -76 -60 -86z" />
<glyph unicode="%" horiz-adv-x="1060" d="M29 76q0 18 8 35l325 729q-43 -20 -110 -21q-113 0 -164 56.5t-51 160.5v553q0 104 51 159.5t164 55.5q213 0 213 -215v-522l295 662q6 16 29.5 31.5t41.5 15.5h121q35 0 57.5 -22.5t22.5 -53.5q0 -18 -8 -35l-324 -729q23 10 49.5 15t61.5 5q211 0 211 -217v-553 q0 -215 -211 -215q-113 0 -164 55.5t-51 159.5v516l-291 -655q-8 -16 -30.5 -31.5t-43.5 -15.5h-120q-37 0 -59.5 22.5t-22.5 53.5zM111 78h120l721 1618h-121zM117 1036q0 -66 31.5 -101.5t103.5 -35.5q133 0 133 137v553q0 137 -133 137q-72 0 -103.5 -35.5t-31.5 -101.5 v-553zM221 1034v557q0 29 31 29q27 0 27 -29v-557q0 -29 -27 -28q-31 0 -31 28zM674 186q0 -66 32.5 -101.5t104.5 -35.5q133 0 133 137v553q0 137 -133 138q-72 0 -104.5 -36t-32.5 -102v-553zM780 184v557q0 29 31 29q27 0 27 -29v-557q0 -29 -27 -28q-31 0 -31 28z" />
<glyph unicode="&#x26;" horiz-adv-x="858" d="M25 397v117q0 63 4 114.5t18 101.5t43 103.5t78 120.5l-29 70v-2q-23 59 -35 103t-18 81t-7 71t-1 75v98q0 184 71.5 263t229.5 79q82 0 138 -25.5t90 -71.5t48.5 -107.5t14.5 -135.5v-119q0 -57 -9.5 -106t-28 -99.5t-48 -103.5t-70.5 -117q12 -41 26.5 -83t28.5 -83 q23 16 49 17h142q33 0 55.5 -23.5t22.5 -56.5v-64q0 -76 -10.5 -144.5t-28.5 -129.5q20 -8 35.5 -26.5t15.5 -47.5v-174q0 -47 -49 -73.5t-129 -26.5q-29 0 -56.5 8t-50.5 20q-41 -23 -87 -30.5t-99 -7.5q-106 0 -175 25.5t-109 77.5t-55 130t-15 182zM104 397 q0 -84 12.5 -147.5t43 -105.5t84 -62.5t135.5 -20.5q59 0 107.5 13.5t78.5 44.5q37 -47 107 -47q37 0 59.5 5t38.5 15v174q-12 -16 -29.5 -20t-33.5 -4t-33 10q86 143 86 362v64h-142v-55q0 -51 -5 -97.5t-17 -87.5l-170 477q43 66 74.5 119t52 101.5t30 96.5t9.5 101v119 q0 55 -11.5 102.5t-36 83t-65.5 55t-100 19.5q-119 0 -170 -59.5t-51 -202.5v-98q0 -37 1 -68t7 -64.5t17.5 -73.5t31.5 -95l39 -111q-49 -66 -79 -118t-45 -101t-20.5 -98.5t-5.5 -108.5v-117zM281 401v119q0 86 8 137.5t35 98.5l174 -494q-16 -16 -44 -24.5t-59 -8.5 q-66 0 -90 42t-24 130zM313 1378v64q0 94 68 94q37 0 51 -28.5t14 -88.5v-57q0 -84 -22.5 -153.5t-58.5 -123.5l-19 56q-10 37 -17 67.5t-10.5 58t-4.5 54.5t-1 57zM360 401q0 -92 35 -92h2l-37 107v-15zM711 315l2 4h-2l2 -2z" />
<glyph unicode="'" horiz-adv-x="391" d="M35 1505v191q0 35 23.5 57.5t56.5 22.5h161q33 0 56.5 -22.5t23.5 -57.5v-191l-37 -266q-4 -29 -26.5 -49.5t-50.5 -20.5h-92q-29 0 -51.5 20.5t-26.5 49.5zM115 1516l35 -267h92l34 267v180h-161v-180z" />
<glyph unicode="(" horiz-adv-x="614" d="M121 262v1251q0 221 93 320.5t288 99.5h16q35 0 57.5 -23.5t22.5 -56.5v-131q0 -33 -22.5 -55t-57.5 -22h-16q-94 0 -94 -132v-1251q0 -131 94 -131h16q35 0 57.5 -22.5t22.5 -55.5v-131q0 -35 -22.5 -57.5t-57.5 -22.5h-16q-195 0 -288 99.5t-93 320.5zM199 262 q0 -180 74.5 -260t228.5 -80h16v131h-16q-174 0 -174 209v1251q0 209 174 209h16v131h-16q-154 0 -228.5 -79.5t-74.5 -260.5v-1251z" />
<glyph unicode=")" horiz-adv-x="614" d="M121 53q0 33 22.5 55.5t55.5 22.5h18q94 0 94 131v1251q0 131 -94 132h-18q-33 0 -55.5 22.5t-22.5 54.5v131q0 33 22.5 56.5t55.5 23.5h18q193 0 287 -99t94 -321v-1251q0 -221 -94 -320.5t-287 -99.5h-18q-33 0 -55.5 22.5t-22.5 57.5v131zM199 53v-131h18 q154 0 227.5 80t73.5 260v1251q0 180 -73.5 260t-227.5 80h-18v-131h18q172 0 172 -209v-1251q0 -209 -172 -209h-18z" />
<glyph unicode="*" horiz-adv-x="751" d="M4 1442q0 6 4 22l33 105q8 25 29.5 40t46.5 15q16 0 26 -4l103 -39l-6 113q0 35 21.5 58.5t57.5 23.5h111q35 0 57.5 -23.5t22.5 -58.5l-6 -109l102 39q14 6 31 6q57 0 74 -57l32 -107q2 -8 2 -22q0 -29 -16 -48.5t-43 -27.5l-104 -29l69 -84q18 -23 19 -49 q0 -37 -33 -63l-88 -66q-20 -14 -45 -14q-45 0 -70 37l-59 92l-58 -92q-12 -20 -30.5 -28.5t-36.5 -10.5q-25 0 -47 16l-88 66q-33 25 -33 59q0 29 18 51l70 86l-107 27q-29 6 -43 27.5t-16 48.5zM82 1444l225 -60l-145 -180l88 -63l123 196l129 -196l88 63l-148 180l224 62 l-33 104l-215 -86l12 232h-111l13 -232l-215 84z" />
<glyph unicode="+" horiz-adv-x="1026" d="M47 836v135q0 33 22.5 56.5t55.5 23.5h244v241q0 33 22.5 55.5t54.5 22.5h136q33 0 56.5 -22.5t23.5 -55.5v-241h243q33 0 55.5 -23.5t22.5 -56.5v-135q0 -33 -22.5 -55.5t-55.5 -22.5h-243v-244q0 -35 -24 -57.5t-56 -22.5h-136q-33 0 -55 22.5t-22 57.5v244h-244 q-33 0 -55.5 22.5t-22.5 55.5zM125 836h321v-322h136v322h323v135h-323v321h-136v-321h-321v-135z" />
<glyph unicode="," horiz-adv-x="397" d="M35 123v201q0 35 23.5 57t56.5 22h168q33 0 56 -22.5t23 -56.5v-238q0 -43 -11 -80t-35.5 -65.5t-64.5 -45t-95 -16.5h-21q-33 0 -55.5 23.5t-22.5 56.5v74q0 20 4 30q-27 20 -26 60zM115 123h75v-49q0 -41 -36 -41h-19v-74h21q70 0 98.5 37t28.5 90v238h-168v-201z" />
<glyph unicode="-" horiz-adv-x="466" d="M0 823v140q0 35 22.5 57t55.5 22h315q33 0 55.5 -22.5t22.5 -56.5v-140q0 -33 -22.5 -55.5t-55.5 -22.5h-315q-33 0 -55.5 23t-22.5 55zM78 823h315v140h-315v-140z" />
<glyph unicode="." horiz-adv-x="395" d="M35 78v246q0 35 23.5 57t56.5 22h168q33 0 56 -22.5t23 -56.5v-246q0 -33 -23.5 -55.5t-55.5 -22.5h-168q-33 0 -56.5 22.5t-23.5 55.5zM115 78h168v246h-168v-246z" />
<glyph unicode="/" horiz-adv-x="585" d="M-14 78q0 10 2 16l323 1618q4 25 26.5 44.5t49.5 19.5h133q35 0 57.5 -22.5t22.5 -55.5q0 -4 -1 -8t-1 -9l-326 -1618q-4 -27 -26.5 -45t-48.5 -18h-131q-35 0 -57.5 21.5t-22.5 56.5zM66 78h131l323 1618h-133z" />
<glyph unicode="0" horiz-adv-x="759" d="M35 336v1104q0 174 82 264t262 90t262 -90t82 -264v-1104q0 -174 -82 -264t-262 -90t-262 90t-82 264zM115 336q0 -135 63.5 -205t200.5 -70q139 0 202.5 70t63.5 205v1104q0 135 -63.5 204.5t-202.5 69.5q-137 0 -200.5 -69.5t-63.5 -204.5v-1104zM295 332v1112 q0 92 84 92q88 0 88 -92v-1112q0 -92 -88 -92q-84 0 -84 92zM373 332q0 -12 6 -13q8 0 8 13v1112q0 12 -8 12q-6 0 -6 -12v-1112z" />
<glyph unicode="1" horiz-adv-x="483" d="M8 1401v176q0 33 22.5 55.5t55.5 22.5h29v41q0 35 22.5 57.5t55.5 22.5h161q33 0 55.5 -22.5t22.5 -57.5v-1618q0 -33 -22.5 -55.5t-55.5 -22.5h-180q-33 0 -55.5 22.5t-22.5 55.5v1243h-10q-33 0 -55.5 22.5t-22.5 57.5zM86 1401h88v-1323h180v1618h-161v-43 q0 -76 -66 -76h-41v-176z" />
<glyph unicode="2" horiz-adv-x="720" d="M25 78v295q0 74 9 137t28.5 123.5t51 121t76.5 126.5q41 61 72 109t53 89q-16 -6 -30 -6h-181q-33 0 -56 22.5t-23 57.5v281q0 193 81.5 276.5t253.5 83.5q170 0 254 -86t84 -274v-189q0 -137 -46 -254t-138 -243q-51 -70 -79.5 -119t-44 -89t-19.5 -79t-4 -88v-35h251 q35 0 57.5 -22.5t22.5 -55.5v-182q0 -33 -22.5 -55.5t-57.5 -22.5h-514q-33 0 -56 22.5t-23 55.5zM104 78h514v182h-331v113q0 55 5 98t21.5 89t49 100.5t88.5 132.5q86 119 126.5 224t40.5 228v189q0 147 -64.5 213.5t-193.5 66.5q-131 0 -193.5 -65.5t-62.5 -214.5v-281 h181v283q0 96 75 96q76 0 76 -96v-174q0 -57 -6 -100.5t-25.5 -88.5t-55.5 -100t-93 -137q-49 -70 -80 -124.5t-46 -105.5t-20.5 -106.5t-5.5 -126.5v-295z" />
<glyph unicode="3" horiz-adv-x="722" d="M25 334v319q0 33 23.5 55.5t55.5 22.5h183q25 -2 45 -15.5t30 -39.5v63h-81q-33 0 -55.5 22.5t-22.5 55.5v172q0 33 22.5 55.5t55.5 22.5h84q-4 0 -5 16v35q-10 -20 -29.5 -33.5t-43.5 -13.5h-178q-33 0 -56.5 22.5t-23.5 57.5v285q0 190 80.5 274t252.5 84 q174 0 252 -84t78 -276v-359q0 -51 -14 -96t-33 -74q23 -33 37 -76t14 -102v-391q0 -160 -80.5 -257t-253.5 -97q-170 0 -253.5 97t-83.5 255zM104 334q0 -123 63.5 -198t194.5 -75t192.5 76t61.5 199v391q0 78 -27.5 119t-78.5 57q53 23 78.5 63t25.5 109v359 q0 150 -60 215t-192 65q-131 0 -192 -65.5t-61 -212.5v-285h178v287q0 47 17.5 70.5t57.5 23.5q41 0 58.5 -23.5t17.5 -70.5v-355q0 -47 -14 -70.5t-55 -23.5h-88v-172h81q45 0 61.5 -23.5t16.5 -70.5v-387q0 -94 -78 -94q-76 0 -75 94v317h-183v-319z" />
<glyph unicode="4" horiz-adv-x="741" d="M-8 401v166l350 1153q6 23 28.5 39.5t47.5 16.5h170q33 0 55.5 -22.5t22.5 -57.5v-1045q35 0 57 -23.5t22 -56.5v-170q0 -33 -22.5 -56t-56.5 -23v-244q0 -33 -22.5 -55.5t-55.5 -22.5h-170q-33 0 -55.5 22.5t-22.5 55.5v244h-268q-35 0 -57.5 23.5t-22.5 55.5zM72 401 h346v-323h170v323h78v170h-78v1125h-170l-346 -1137v-158zM231 571q37 121 66 216.5t52.5 174t42 144t36.5 127.5q-2 -61 -4 -128t-3 -145.5t-2 -174t-1 -214.5h-187zM338 651h2v6q-2 -2 -2 -6z" />
<glyph unicode="5" horiz-adv-x="733" d="M35 864l20 834q0 35 21.5 56.5t56.5 21.5h481q33 0 55.5 -22.5t22.5 -57.5v-183q0 -33 -22.5 -55t-55.5 -22h-241q-2 -33 -3 -59.5t-1 -55.5t-1 -62.5t-1 -80.5q14 4 33.5 5t35.5 1q125 0 195.5 -75t70.5 -253v-524q0 -178 -79.5 -264t-251.5 -86q-334 0 -334 350v340 q0 33 23.5 56.5t56.5 23.5h176q27 0 48 -17.5t28 -44.5v170q0 4 -2 4q-16 0 -19 -20q-4 -29 -27.5 -48.5t-52.5 -17.5l-157 6q-33 2 -55.5 24.5t-20.5 55.5zM115 862l155 -4q8 39 32 62.5t65 23.5q82 0 82 -84v-524q0 -94 -78 -94t-78 92v338h-176v-340q0 -270 254 -271 q131 0 191.5 67t60.5 204v524q0 135 -48.5 192.5t-138.5 57.5q-59 0 -96 -18.5t-59 -47.5l18 473h315v183h-481z" />
<glyph unicode="6" horiz-adv-x="741" d="M33 336v1104q0 166 84 260t254 94q174 0 251.5 -94t77.5 -260v-281q0 -25 -14 -43t-35 -29q59 -82 60 -245v-506q0 -166 -84 -260t-256 -94q-170 0 -254 94t-84 260zM113 336q0 -129 64.5 -202t193.5 -73q131 0 195.5 73t64.5 202v506q0 135 -47 194.5t-148 59.5 q-57 0 -90 -20.5t-51 -45.5v410q0 92 76 92t75 -92v-281h175v281q0 129 -59.5 201.5t-190.5 72.5q-129 0 -193.5 -72.5t-64.5 -201.5v-1104zM295 336v520q4 29 22.5 46.5t53.5 17.5q49 0 63.5 -37t14.5 -103v-444q0 -47 -15.5 -70.5t-62.5 -23.5q-45 0 -60.5 23.5 t-15.5 70.5z" />
<glyph unicode="7" horiz-adv-x="679" d="M2 1513v183q0 35 22.5 57.5t55.5 22.5h520q33 0 55.5 -22.5t22.5 -57.5v-187q-129 -291 -185.5 -641t-56.5 -790q0 -33 -22.5 -55.5t-55.5 -22.5h-182q-33 0 -55.5 22.5t-22.5 55.5q0 256 21.5 470t52.5 385t67.5 297t67.5 206h-227q-33 0 -55.5 22.5t-22.5 54.5z M80 1513h348q-18 -31 -59 -131t-84 -277t-76 -432t-33 -595h182q0 451 55.5 805t186.5 645v168h-520v-183z" />
<glyph unicode="8" horiz-adv-x="731" d="M29 332v391q0 66 17 115t44 84q-23 31 -35 71.5t-12 102.5v342q0 166 73.5 261t248.5 95q172 0 245.5 -95t73.5 -261v-342q0 -113 -45 -176q29 -35 45 -83.5t16 -113.5v-391q0 -350 -335 -350q-336 0 -336 350zM109 332q0 -270 256 -271q256 0 256 271v391q0 82 -30 128 t-77 64q41 23 66.5 64t25.5 117v342q0 129 -56 202.5t-185 73.5q-131 0 -186.5 -73.5t-55.5 -202.5v-342q0 -76 25.5 -117t68.5 -64q-49 -18 -78.5 -64t-29.5 -128v-391zM287 334v403q0 82 78 82t77 -82v-403q0 -92 -77 -92q-78 0 -78 92zM289 1071v367q0 51 16.5 72.5 t59.5 21.5q45 0 60 -21.5t15 -72.5v-367q0 -82 -75 -82q-76 0 -76 82z" />
<glyph unicode="9" horiz-adv-x="739" d="M31 958v482q0 168 82 261t254 93q170 0 254 -93t84 -259v-1106q0 -166 -84 -260t-254 -94q-158 0 -246 94t-88 260v278q0 33 21.5 54.5t49.5 25.5q-37 41 -55 104.5t-18 159.5zM111 958q0 -135 46 -193t146 -58q53 0 87 19t52 44v-434q0 -94 -75 -94q-78 0 -78 94v278 h-176v-278q0 -129 66.5 -202t187.5 -73q129 0 193.5 73t64.5 202v1106q0 129 -64.5 200.5t-193.5 71.5q-131 0 -193.5 -71.5t-62.5 -202.5v-482zM289 977v463q0 51 18.5 71.5t59.5 20.5q76 0 75 -92v-486q-4 -29 -22.5 -48t-52.5 -19q-78 0 -78 90z" />
<glyph unicode=":" horiz-adv-x="395" d="M35 78v246q0 35 23.5 57t56.5 22h168q33 0 56 -22.5t23 -56.5v-246q0 -33 -23.5 -55.5t-55.5 -22.5h-168q-33 0 -56.5 22.5t-23.5 55.5zM35 799v243q0 33 23.5 55.5t56.5 22.5h168q33 0 56 -22.5t23 -55.5v-243q0 -33 -23.5 -56.5t-55.5 -23.5h-168q-33 0 -56.5 23.5 t-23.5 56.5zM115 78h168v246h-168v-246zM115 799h168v243h-168v-243z" />
<glyph unicode=";" horiz-adv-x="397" d="M35 123v201q0 35 23.5 57t56.5 22h168q33 0 56 -22.5t23 -56.5v-238q0 -43 -11 -80t-35.5 -65.5t-64.5 -45t-95 -16.5h-21q-33 0 -55.5 23.5t-22.5 56.5v74q0 20 4 30q-27 20 -26 60zM35 799v243q0 33 23.5 55.5t56.5 22.5h168q33 0 56 -22.5t23 -55.5v-243 q0 -33 -23.5 -56.5t-55.5 -23.5h-168q-33 0 -56.5 23.5t-23.5 56.5zM115 123h75v-49q0 -41 -36 -41h-19v-74h21q70 0 98.5 37t28.5 90v238h-168v-201zM115 799h168v243h-168v-243z" />
<glyph unicode="&#x3c;" horiz-adv-x="1026" d="M47 819v166q0 23 16.5 45.5t38.5 28.5l779 239q8 2 24 2q33 0 55.5 -21.5t22.5 -55.5v-136q0 -25 -16.5 -48t-40.5 -29l-377 -107l377 -112q23 -8 40 -30t17 -46v-135q0 -35 -22.5 -56.5t-53.5 -21.5h-13t-13 4l-779 239q-23 8 -39 30t-16 44zM125 819l780 -239v135 l-641 192l641 180v136l-780 -238v-166z" />
<glyph unicode="=" horiz-adv-x="1026" d="M47 651v137q0 33 22.5 55.5t55.5 22.5h780q33 0 55.5 -22.5t22.5 -55.5v-137q0 -33 -22.5 -56.5t-55.5 -23.5h-780q-33 0 -55.5 23.5t-22.5 56.5zM47 1018v137q0 35 22.5 57.5t55.5 22.5h780q33 0 55.5 -22.5t22.5 -57.5v-137q0 -33 -22.5 -55.5t-55.5 -22.5h-780 q-33 0 -55.5 22.5t-22.5 55.5zM125 651h780v137h-780v-137zM125 1018h780v137h-780v-137z" />
<glyph unicode="&#x3e;" horiz-adv-x="1026" d="M47 580v135q0 23 17.5 45t39.5 31l377 112q-98 29 -189 54.5t-188 52.5q-23 6 -40 30.5t-17 46.5v136q0 35 22.5 56t55.5 21q16 0 25 -2l778 -239q23 -8 39 -29.5t16 -44.5v-166q0 -23 -16.5 -44t-38.5 -30l-778 -239q-8 -2 -14.5 -3t-12.5 -1q-31 0 -53.5 21.5 t-22.5 56.5zM125 580l780 239v166l-780 238v-136l641 -180l-641 -192v-135z" />
<glyph unicode="?" horiz-adv-x="700" d="M23 1153v283q0 184 77.5 271t249.5 87q170 0 251 -86t81 -274v-179q0 -131 -28.5 -219t-88.5 -157q-27 -31 -42 -52.5t-22 -43t-9.5 -48t-2.5 -67.5v-222q0 -37 -28 -61q29 -29 28 -61v-246q0 -33 -22.5 -55.5t-54.5 -22.5h-170q-33 0 -55.5 22.5t-22.5 55.5v246 q0 37 26 61q-27 20 -26 61v218q0 68 5 120t18.5 95t35 79.5t53.5 75.5q14 16 24.5 28.5t18.5 24.5q-16 -14 -47 -14h-172q-33 0 -55 22.5t-22 57.5zM100 1153h172v287q0 92 78 92q74 0 74 -94v-183q0 -57 -2 -95t-11.5 -66.5t-26.5 -53t-46 -57.5q-27 -33 -45.5 -64.5 t-29.5 -68.5t-16 -82t-5 -104v-218h170v222q0 51 2 83.5t11 58.5t27.5 52.5t53.5 67.5q51 59 74.5 134t23.5 191v179q0 147 -62.5 213.5t-191.5 66.5q-131 0 -190.5 -67.5t-59.5 -210.5v-283zM242 78h170v246h-170v-246z" />
<glyph unicode="@" horiz-adv-x="1132" d="M31 367v686q0 143 31.5 243.5t97 164t166 93t239.5 29.5q266 0 390 -117.5t124 -375.5v-596q0 -139 -73 -218h12q47 0 65.5 -37.5t18.5 -74.5q0 -72 -22.5 -138.5t-82 -117.5t-163 -81t-267.5 -30q-123 0 -222 29t-169 95.5t-107.5 175t-37.5 270.5zM111 367 q0 -139 31.5 -233.5t91 -151t144.5 -81t189 -24.5q139 0 227.5 23.5t139.5 63.5t69.5 91t18.5 109q0 10 -1 19.5t-3 19.5h-117q2 -6 2 -29q0 -33 -15.5 -60.5t-51 -47t-96 -30.5t-150.5 -11q-84 0 -147.5 16t-106.5 55t-64.5 104.5t-21.5 161.5v691q0 150 69.5 229.5 t245.5 79.5q166 0 240 -72.5t74 -195.5v-607q0 -53 -19.5 -72.5t-50.5 -19.5q-35 0 -48 17.5t-20 42.5v632h-88q-2 -14 -3 -28.5t-1 -32.5q-27 72 -108 72q-37 0 -66 -9.5t-49 -32t-31.5 -61.5t-11.5 -98v-430q0 -104 43 -143t115 -39q53 0 81.5 21.5t39.5 47.5 q16 -35 57 -56.5t94 -21.5q82 0 135 57.5t53 160.5v596q0 217 -105 315t-331 98q-119 0 -205 -24.5t-141 -78.5t-81.5 -140t-26.5 -207v-686zM328 1055q29 72 82 96.5t131 24.5q47 0 84 -17q8 2 14 4t14 2h88q29 0 54 -20q-16 66 -71 102.5t-159 36.5q-133 0 -185 -59.5 t-52 -169.5zM330 319q10 -125 75.5 -171t184.5 -46q133 0 183 20.5t50 51.5v4q-4 12 -4 21h-6q-86 0 -149 41q-25 -16 -54.5 -24.5t-68.5 -8.5q-74 0 -128.5 24.5t-82.5 87.5zM504 483v408q0 41 17.5 58.5t51.5 17.5q45 0 60 -58v-463q-16 -47 -60 -47q-37 0 -53 18.5 t-16 65.5z" />
<glyph unicode="A" horiz-adv-x="772" d="M-4 76v12l211 1618q4 29 26.5 49.5t51.5 20.5h211q29 0 51 -20.5t26 -49.5l199 -1618v-12q0 -33 -21.5 -54.5t-56.5 -21.5h-182q-29 0 -52.5 20.5t-27.5 49.5l-20 180h-60l-22 -178q-4 -31 -26.5 -51.5t-51.5 -20.5h-178q-35 0 -56.5 21.5t-21.5 54.5zM74 78h178 q8 66 14 126t17 124h198l31 -250h182l-198 1618h-211zM301 496q23 180 44.5 363t37.5 372q18 -188 37.5 -369.5t42.5 -365.5h-162z" />
<glyph unicode="B" horiz-adv-x="753" d="M47 78v1618q0 35 22.5 57.5t55.5 22.5h262q174 0 249 -86t75 -275v-328q0 -94 -41 -159q27 -31 43 -77t16 -103v-396q0 -186 -85 -269t-257 -83h-262q-33 0 -55.5 22.5t-22.5 55.5zM125 78h262q133 0 198.5 65.5t65.5 208.5v396q0 78 -31.5 117.5t-74.5 49.5 q86 35 86 172v328q0 147 -55.5 214t-188.5 67h-262v-1618zM307 260v565h82q43 0 60.5 -20.5t17.5 -73.5v-377q0 -94 -80 -94h-80zM307 985v528h80q41 0 58.5 -19t17.5 -73v-352q0 -84 -74 -84h-82zM385 338h2v410h-2v-410z" />
<glyph unicode="C" horiz-adv-x="718" d="M35 334v1102q0 358 340 358q319 0 319 -354v-287q0 -35 -22.5 -57.5t-57.5 -22.5h-163q-25 0 -44.5 13.5t-29.5 33.5v-418q10 23 29.5 36.5t44.5 13.5h163q35 0 57.5 -23.5t22.5 -56.5v-334q0 -182 -75.5 -269t-243.5 -87q-340 0 -340 352zM115 334q0 -272 260 -273 q127 0 183 68t56 209v334h-163v-336q0 -94 -76 -94t-76 94v1104q0 92 76 92q41 0 58.5 -22.5t17.5 -69.5v-287h163v287q0 274 -239 274q-260 0 -260 -278v-1102z" />
<glyph unicode="D" horiz-adv-x="755" d="M47 78v1618q0 35 22.5 57.5t55.5 22.5h256q172 0 255 -94.5t83 -262.5v-1065q0 -354 -338 -354h-256q-33 0 -55.5 22.5t-22.5 55.5zM125 78h256q260 0 260 276v1065q0 131 -64.5 204t-195.5 73h-256v-1618zM307 260v1253h74q80 0 80 -94v-1065q0 -94 -80 -94h-74z" />
<glyph unicode="E" d="M47 78v1618q0 35 22.5 57.5t55.5 22.5h438q33 0 55.5 -22.5t22.5 -57.5v-183q0 -33 -22.5 -55t-55.5 -22h-178v-363h92q33 0 56.5 -22.5t23.5 -55.5v-184q0 -33 -23.5 -55.5t-56.5 -22.5h-92v-395h186q33 0 56.5 -22.5t23.5 -55.5v-182q0 -33 -23.5 -55.5t-56.5 -22.5 h-446q-33 0 -55.5 22.5t-22.5 55.5zM125 78h446v182h-264v551h170v184h-170v518h256v183h-438v-1618z" />
<glyph unicode="F" horiz-adv-x="643" d="M47 78v1618q0 35 22.5 57.5t55.5 22.5h446q33 0 56.5 -22.5t23.5 -57.5v-183q0 -33 -23.5 -55t-56.5 -22h-186v-371h94q33 0 56.5 -22.5t23.5 -55.5v-182q0 -33 -23.5 -56.5t-56.5 -23.5h-94v-647q0 -33 -22.5 -55.5t-55.5 -22.5h-182q-33 0 -55.5 22.5t-22.5 55.5z M125 78h182v727h172v182h-172v526h264v183h-446v-1618z" />
<glyph unicode="G" horiz-adv-x="747" d="M35 336v1102q0 174 84 265t254 91q174 0 251.5 -91t77.5 -265v-285q0 -35 -23.5 -57.5t-55.5 -22.5h-162q-29 0 -53.5 16.5t-34.5 40.5v-206h262q33 0 55.5 -22.5t22.5 -55.5v-776q0 -35 -22.5 -57.5t-55.5 -22.5h-21q-10 0 -32.5 12t-30.5 21l-6 6q-41 -23 -89 -35 t-96 -12q-70 0 -129 18t-103 59t-68.5 110t-24.5 167zM115 336q0 -78 18.5 -130t52 -85t77.5 -46.5t97 -13.5q59 0 112.5 18.5t82.5 65.5l59 -75h21v776h-270v-174h96v-348q-6 -82 -90 -82q-35 0 -55.5 22.5t-20.5 71.5v1104q0 92 78 92q88 0 88 -92v-287h162v285 q0 135 -58.5 205.5t-191.5 70.5q-129 0 -193.5 -70.5t-64.5 -205.5v-1102z" />
<glyph unicode="H" horiz-adv-x="765" d="M47 78v1618q0 35 22.5 57.5t55.5 22.5h182q27 0 47.5 -17.5t28.5 -44.5q6 27 27.5 44.5t50.5 17.5h180q33 0 55.5 -22.5t22.5 -57.5v-1618q0 -33 -22.5 -55.5t-55.5 -22.5h-180q-29 0 -50.5 16.5t-27.5 44.5q-8 -29 -28.5 -45t-47.5 -16h-182q-33 0 -55.5 22.5 t-22.5 55.5zM125 78h182v733h154v-733h180v1618h-180v-703h-154v703h-182v-1618z" />
<glyph unicode="I" horiz-adv-x="440" d="M51 78v1618q0 35 22.5 57.5t55.5 22.5h182q33 0 55.5 -22.5t22.5 -57.5v-1618q0 -33 -22.5 -55.5t-55.5 -22.5h-182q-33 0 -55.5 22.5t-22.5 55.5zM129 78h182v1618h-182v-1618z" />
<glyph unicode="J" horiz-adv-x="536" d="M-6 78v182q0 35 21.5 56.5t54.5 21.5q20 0 41.5 -5t50.5 -5q-4 0 -4 20v1348q0 35 22.5 57.5t55.5 22.5h182q35 0 57.5 -22.5t22.5 -57.5v-1348q0 -190 -86 -275t-250 -85q-78 0 -123 19.5t-45 70.5zM74 78q16 -4 37.5 -7t50.5 -3q125 0 190.5 66.5t65.5 213.5v1348h-182 v-1348q0 -98 -74 -98q-29 0 -50.5 3t-37.5 7v-182z" />
<glyph unicode="K" horiz-adv-x="800" d="M45 78v1618q0 35 22.5 57.5t55.5 22.5h184q33 0 55.5 -22.5t22.5 -57.5v-168l66 194q6 20 28.5 37t44.5 17h195q35 0 58.5 -20.5t23.5 -55.5q0 -14 -6 -29l-252 -708l270 -861q4 -20 4 -28q0 -31 -21.5 -52.5t-56.5 -21.5h-209q-23 0 -45 16.5t-28 38.5l-72 240v-217 q0 -33 -22.5 -55.5t-55.5 -22.5h-184q-33 0 -55.5 22.5t-22.5 55.5zM123 78h184v340v194v127.5t-4 120.5q57 -195 112.5 -387t114.5 -395h209l-278 889l258 729h-195q-57 -174 -112.5 -342t-108.5 -346q4 45 4 91v99v164v334h-184v-1618z" />
<glyph unicode="L" horiz-adv-x="645" d="M47 78v1618q0 35 22.5 57.5t55.5 22.5h182q33 0 55.5 -22.5t22.5 -57.5v-1358h186q33 0 56.5 -22.5t23.5 -55.5v-182q0 -33 -23.5 -55.5t-56.5 -22.5h-446q-33 0 -55.5 22.5t-22.5 55.5zM125 78h446v182h-264v1436h-182v-1618z" />
<glyph unicode="M" horiz-adv-x="1005" d="M41 78v1618q0 35 22.5 57.5t57.5 22.5h241q29 0 51.5 -20.5t26.5 -51.5q16 -162 30.5 -292t27.5 -236l59 528q4 31 26.5 51.5t51.5 20.5h248q33 0 55.5 -22.5t22.5 -57.5v-1618q0 -33 -23 -55.5t-55 -22.5h-168q-23 0 -40.5 12.5t-27.5 28.5q-12 -16 -29.5 -28.5 t-39.5 -12.5h-158q-20 0 -37.5 10t-28.5 27q-10 -16 -27.5 -26.5t-39.5 -10.5h-166q-35 0 -57.5 22.5t-22.5 55.5zM121 78h166v473q0 160 -2 316.5t-6 316.5l141 -1106h158q27 215 48 376.5t37.5 290.5t31 233.5t27.5 205.5q-4 -160 -5.5 -316.5t-1.5 -316.5v-473h168v1618 h-248q-29 -274 -50.5 -463t-38 -323t-28.5 -228t-20 -180q-10 86 -21.5 180t-27 228t-37 322.5t-50.5 463.5h-241v-1618z" />
<glyph unicode="N" horiz-adv-x="808" d="M41 78v1618q0 35 22.5 57.5t57.5 22.5h211q29 0 51.5 -19.5t26.5 -46.5l43 -246v232q0 35 22.5 57.5t54.5 22.5h156q33 0 55.5 -22.5t22.5 -57.5v-1618q0 -33 -22.5 -55.5t-55.5 -22.5h-176q-27 0 -49.5 18.5t-28.5 44.5l-78 361v-346q0 -33 -22.5 -55.5t-57.5 -22.5 h-153q-35 0 -57.5 22.5t-22.5 55.5zM121 78h153v420v266v199.5t-4 199.5q20 -98 43 -201.5t51.5 -230.5t64.5 -285.5t81 -367.5h176v1618h-156v-549v-219v-164t5 -166q-18 94 -37 193.5t-42.5 225.5t-54 289.5t-69.5 389.5h-211v-1618z" />
<glyph unicode="O" horiz-adv-x="745" d="M35 336v1104q0 174 83 264t253 90q174 0 257 -90t83 -264v-1104q0 -174 -83 -264t-257 -90q-170 0 -253 90t-83 264zM115 336q0 -274 256 -275q260 0 260 275v1104q0 274 -260 274q-256 0 -256 -274v-1104zM295 336v1104q0 92 76 92q80 0 80 -92v-1104q0 -94 -80 -94 q-76 0 -76 94z" />
<glyph unicode="P" horiz-adv-x="747" d="M47 78v1618q0 35 22.5 57.5t55.5 22.5h256q188 0 274 -89.5t86 -283.5v-264q0 -197 -87 -284t-269 -87v-690q0 -33 -22.5 -55.5t-55.5 -22.5h-182q-33 0 -55.5 22.5t-22.5 55.5zM125 78h182v770h76q143 0 212 68.5t69 222.5v264q0 154 -68 223.5t-215 69.5h-256v-1618z M307 1024v489h74q55 0 78.5 -26.5t23.5 -81.5v-272q0 -109 -100 -109h-76z" />
<glyph unicode="Q" horiz-adv-x="745" d="M33 365v1075q0 174 83 264t255 90q174 0 257 -90t83 -264v-1075q0 -131 -47 -215q18 -8 32.5 -28t14.5 -48v-142q0 -47 -59.5 -83.5t-153.5 -36.5q-123 0 -188.5 64.5t-82.5 156.5q-195 66 -194 332zM113 365q0 -233 188 -271q0 -39 12.5 -75.5t37 -65.5t61.5 -46.5 t86 -17.5q51 0 83.5 13.5t49.5 29.5v142q-41 -41 -105 -41q-88 0 -104 57q109 14 159 83t50 192v1075q0 274 -260 274q-258 0 -258 -274v-1075zM295 354v1086q0 92 76 92q78 0 78 -92v-1086q0 -92 -78 -92q-76 0 -76 92z" />
<glyph unicode="R" horiz-adv-x="761" d="M45 78v1618q0 35 22.5 57.5t55.5 22.5h252q180 0 272 -84t92 -287v-328q0 -98 -22.5 -163.5t-75.5 -106.5q29 -145 49.5 -291.5t42.5 -290.5l21 -137v-10q0 -35 -22.5 -56.5t-57.5 -21.5h-199q-31 0 -52.5 21.5t-25.5 52.5l-12 98v-94q0 -33 -22.5 -55.5t-55.5 -22.5 h-184q-33 0 -55.5 22.5t-22.5 55.5zM123 78h184v729h74q29 -184 50.5 -363.5t43.5 -365.5h199q-29 190 -55.5 380.5t-63.5 385.5q53 31 80 86t27 147v328q0 160 -72 225.5t-215 65.5h-252v-1618zM307 971v542h68q66 0 83 -34.5t17 -110.5v-293q0 -104 -98 -104h-70z" />
<glyph unicode="S" horiz-adv-x="722" d="M25 328v344q0 33 23.5 56.5t55.5 23.5h146q-45 53 -84 102t-78 102t-51 115t-12 133v244q0 346 337 346q178 0 253 -86t75 -260v-295q0 -35 -22.5 -57.5t-55.5 -22.5h-172q68 -78 117 -138.5t80 -116.5t45 -117.5t14 -139.5v-233q0 -168 -77.5 -257t-256.5 -89 q-180 0 -258.5 89t-78.5 257zM104 328q0 -129 60.5 -198t197.5 -69q135 0 194.5 69t59.5 198v233q0 82 -13 140.5t-54 115.5q-53 76 -113.5 142.5t-116.5 138.5q-18 25 -24 49t-6 59v242q0 84 78 84q41 0 58 -22.5t17 -63.5v-293h170v295q0 135 -57 200.5t-193 65.5 q-258 0 -258 -266v-244q0 -59 10.5 -110.5t39.5 -92.5q59 -86 114.5 -148t110.5 -132q35 -43 46 -77t11 -85v-231q0 -86 -80 -86q-41 0 -59 22.5t-18 63.5v344h-175v-344z" />
<glyph unicode="T" horiz-adv-x="667" d="M-4 1513v183q0 35 22.5 57.5t55.5 22.5h520q33 0 55.5 -22.5t22.5 -57.5v-183q0 -33 -22.5 -55t-55.5 -22h-90v-1358q0 -33 -23.5 -55.5t-56.5 -22.5h-180q-33 0 -55.5 22.5t-22.5 55.5v1358h-92q-33 0 -55.5 22.5t-22.5 54.5zM74 1513h170v-1435h180v1435h170v183h-520 v-183z" />
<glyph unicode="U" horiz-adv-x="755" d="M41 336v1360q0 35 22.5 57.5t57.5 22.5h180q27 0 48.5 -17.5t27.5 -44.5q6 27 27.5 44.5t50.5 17.5h180q33 0 55.5 -22.5t22.5 -57.5v-1360q0 -354 -336 -354t-336 354zM121 336q0 -274 256 -275q258 0 258 275v1360h-180v-1360q0 -94 -78 -94q-76 0 -76 94v1360h-180 v-1360z" />
<glyph unicode="V" horiz-adv-x="778" d="M-2 1690q0 35 19.5 60.5t58.5 25.5h190q29 0 51.5 -21.5t26.5 -52.5l45 -500l53 502q4 31 27 51.5t51 20.5h182q39 0 58.5 -26t19.5 -62l-198 -1618q-4 -29 -27 -49.5t-51 -20.5h-242q-31 0 -53.5 21.5t-26.5 50.5zM76 1696l186 -1618h242l198 1618h-182 q-14 -135 -27.5 -273.5t-27.5 -270.5t-27.5 -253t-24 -221t-17.5 -174t-9 -111q-2 37 -8 111t-16.5 174t-21.5 221t-24.5 253t-25.5 270.5t-25 273.5h-190z" />
<glyph unicode="W" horiz-adv-x="1155" d="M-2 1690q0 35 19.5 60.5t58.5 25.5h190q29 0 51.5 -21.5t26.5 -52.5l29 -373l43 375q2 31 25.5 51.5t52.5 20.5h170q29 0 51 -21.5t26 -52.5l33 -350l37 352q2 31 25.5 51.5t52.5 20.5h190q39 0 58.5 -27t19.5 -61l-192 -1618q-4 -29 -27 -49.5t-51 -20.5h-215 q-29 0 -51.5 20.5t-26.5 51.5q-8 72 -15.5 140.5t-13.5 135.5l-26 -276q-4 -31 -27 -51.5t-51 -20.5h-217q-29 0 -51.5 20.5t-26.5 51.5zM76 1696l168 -1618h217q20 203 38.5 392t34 341t25.5 255t12 134q0 -31 8.5 -133t21.5 -255t31.5 -342t39.5 -392h215l192 1618h-190 q-20 -213 -40 -414t-36 -363.5t-27.5 -274.5t-13.5 -146q-2 35 -12 146.5t-25.5 274t-34 363.5t-36.5 414h-170q-25 -213 -46.5 -414t-39 -363.5t-28.5 -274.5t-14 -146q-2 35 -12 146.5t-24.5 274t-31.5 363.5t-32 414h-190z" />
<glyph unicode="X" horiz-adv-x="782" d="M-18 74q0 8 4 24l219 848l-182 733q-2 4 -2.5 9.5t-0.5 9.5q0 35 21.5 56.5t56.5 21.5h195q33 0 51 -20.5t27.5 -51.5t12.5 -66.5t9 -66.5q6 31 10.5 66.5t13.5 66.5t26.5 51.5t52.5 20.5h188q35 0 56.5 -21.5t21.5 -56.5v-21l-189 -727l224 -852q2 -8 2 -24 q0 -31 -22.5 -52.5t-57.5 -21.5h-195q-27 0 -49 18.5t-26 47.5q-14 72 -31 148.5t-33 150.5q-12 -72 -30.5 -152t-30.5 -150q-4 -27 -26 -45t-50 -18h-185q-35 0 -58 21.5t-23 52.5zM63 78h185q20 98 42.5 204.5t42 199.5t34 166t18.5 106q4 -33 19.5 -106t36 -167 t43 -199.5t40.5 -203.5h195l-225 872l190 746h-188q-12 -76 -28.5 -160t-32 -161t-28.5 -137t-14 -85q-2 25 -14 85t-27.5 137t-31 161t-27.5 160h-195l187 -752z" />
<glyph unicode="Y" horiz-adv-x="765" d="M-8 1688.5v9.5q0 35 22.5 56.5t57.5 21.5h190q25 0 48.5 -19.5t27.5 -46.5l51 -266l53 266q4 27 25.5 46.5t50.5 19.5h178q35 0 56.5 -21.5t21.5 -56.5v-9.5t-2 -11.5l-221 -903v-696q0 -33 -22.5 -55.5t-57.5 -22.5h-184q-33 0 -55.5 22.5t-22.5 55.5v700l-215 901 q-2 4 -2 9.5zM72 1696l215 -910v-708h184v708l225 910h-178q-18 -98 -38.5 -200.5t-40 -190.5t-34 -155t-18.5 -93q-4 29 -17.5 94.5t-32 153.5t-37.5 189l-38 202h-190z" />
<glyph unicode="Z" horiz-adv-x="716" d="M25 78v196l309 1168h-217q-33 0 -56.5 22.5t-23.5 55.5v176q0 35 23.5 57.5t56.5 22.5h499q35 0 57.5 -22.5t22.5 -57.5v-174l-303 -1180h223q35 0 57.5 -22.5t22.5 -55.5v-186q0 -33 -22.5 -55.5t-57.5 -22.5h-514q-33 0 -55 22.5t-22 55.5zM102 78h514v186h-325 l325 1270v162h-499v-176h319l-334 -1256v-186z" />
<glyph unicode="[" horiz-adv-x="602" d="M121 -78v1931q0 33 22.5 56.5t55.5 23.5h309q33 0 55.5 -23.5t22.5 -56.5v-131q0 -33 -22.5 -55t-55.5 -22h-100v-1514h100q33 0 55.5 -22.5t22.5 -55.5v-131q0 -35 -22.5 -57.5t-55.5 -22.5h-309q-33 0 -55.5 22.5t-22.5 57.5zM199 -78h309v131h-180v1669h180v131h-309 v-1931z" />
<glyph unicode="\" horiz-adv-x="585" d="M-14 1696q0 35 22.5 57.5t57.5 22.5h133q27 0 49 -19.5t26 -44.5l324 -1618q0 -4 1 -9t1 -9q0 -33 -22.5 -54.5t-57.5 -21.5h-131q-27 0 -49.5 18.5t-26.5 44.5l-325 1618q-2 6 -2 15zM66 1696l323 -1618h131l-321 1618h-133z" />
<glyph unicode="]" horiz-adv-x="602" d="M121 53q0 33 22.5 55.5t55.5 22.5h100v1514h-100q-33 0 -55.5 22.5t-22.5 54.5v131q0 33 22.5 56.5t55.5 23.5h309q33 0 55.5 -23.5t22.5 -56.5v-1931q0 -35 -22.5 -57.5t-55.5 -22.5h-309q-33 0 -55.5 22.5t-22.5 57.5v131zM199 53v-131h309v1931h-309v-131h178v-1669 h-178z" />
<glyph unicode="^" horiz-adv-x="737" d="M45 1110q0 8 4 25l162 583q6 23 29.5 40.5t46.5 17.5h166q23 0 46 -17.5t29 -40.5l160 -583q2 -8 2 -25q0 -33 -21.5 -54.5t-56.5 -21.5h-131q-25 0 -47 18.5t-28 43.5l-35 141l-39 -143q-6 -25 -29.5 -42.5t-46.5 -17.5h-131q-35 0 -57.5 21.5t-22.5 54.5zM125 1112h131 l117 442l108 -442h131l-159 584h-166z" />
<glyph unicode="_" horiz-adv-x="706" d="M-25 -12q0 33 22.5 56.5t55.5 23.5h600q33 0 55.5 -24t22.5 -56v-121q0 -33 -22.5 -56.5t-55.5 -23.5h-600q-33 0 -55.5 23.5t-22.5 56.5v121zM53 -12v-121h600v121h-600z" />
<glyph unicode="`" horiz-adv-x="677" d="M45 1690q0 29 21.5 51t58.5 22h209q14 0 35.5 -11t29.5 -21l217 -318q10 -10 13.5 -23.5t3.5 -25.5q0 -29 -21.5 -51.5t-58.5 -22.5h-158q-12 0 -31.5 8.5t-27.5 18.5l-268 317q-23 23 -23 56zM125 1686l270 -318h158l-219 318h-209z" />
<glyph unicode="a" horiz-adv-x="669" d="M18 254v178q0 117 30 188.5t81 118.5h-14q-33 0 -56.5 22.5t-23.5 55.5v258q0 319 293 320q297 0 297 -320v-893q0 -43 5 -66.5t5 -39.5q0 -33 -21.5 -54.5t-56.5 -21.5h-149q-14 0 -35 10q-44 -28 -105 -28h-4q-121 0 -183.5 64.5t-62.5 207.5zM96 254q0 -102 43 -147.5 t125 -45.5q47 0 80 21.5t55 62.5q0 -45 9 -67h149q-10 37 -10 104v893q0 240 -219 240q-213 0 -213 -240v-258h143v256q0 37 12.5 57.5t53.5 20.5q66 0 65 -78v-274q-61 -29 -114.5 -56.5t-93.5 -67.5t-62.5 -98.5t-22.5 -144.5v-178zM258 295v125q0 49 2 87t14.5 66.5 t39 51t75.5 41.5v-394q-18 -51 -65 -51q-66 0 -66 74z" />
<glyph unicode="b" horiz-adv-x="708" d="M47 78v1618q0 35 22.5 57.5t55.5 22.5h164q33 0 56.5 -22.5t23.5 -57.5v-305q10 2 23.5 3t25.5 1q129 0 191.5 -72t62.5 -231v-773q0 -168 -67.5 -249.5t-217.5 -81.5q-74 0 -127 35q-12 -10 -26.5 -16.5t-24.5 -6.5h-84q-33 0 -55.5 22.5t-22.5 55.5zM125 78h84 q10 20 15 38.5t9 41.5q25 -41 63 -65.5t91 -24.5q109 0 158 61t49 190v773q0 119 -43 171t-133 52q-84 0 -129 -58v439h-164v-1618zM289 297v795q10 29 30.5 41t45.5 12q66 0 65 -72v-754q0 -77 -63 -77h-2q-55 0 -76 55z" />
<glyph unicode="c" horiz-adv-x="667" d="M35 309v754q0 147 73.5 239.5t231.5 92.5q156 0 225.5 -91.5t69.5 -238.5v-262q0 -33 -22.5 -56.5t-55.5 -23.5h-149q-33 0 -56 22v-114q25 25 56 24h153q33 0 55.5 -23.5t22.5 -56.5v-270q0 -147 -72.5 -235t-226.5 -88q-158 0 -231.5 90t-73.5 237zM115 309 q0 -113 54 -180.5t171 -67.5q115 0 168 67t53 177v270h-153v-266q0 -82 -68 -82t-68 82v758q0 80 68 80t68 -78v-266h149v262q0 113 -51 181.5t-166 68.5q-117 0 -171 -69.5t-54 -182.5v-754z" />
<glyph unicode="d" horiz-adv-x="708" d="M35 297v795q0 160 63.5 231.5t192.5 71.5q12 0 25.5 -1t23.5 -3v305q0 35 22.5 57.5t55.5 22.5h164q33 0 56.5 -22.5t23.5 -57.5v-1618q0 -33 -24 -55.5t-56 -22.5h-138q-20 0 -36 10q-49 -22 -117 -22h-6q-123 0 -186.5 75.5t-63.5 233.5zM115 297q0 -229 170 -229 q63 0 99 21.5t54 68.5q0 -43 6 -80h138v1618h-164v-439q-45 57 -127 58q-90 0 -133 -52.5t-43 -170.5v-795zM276 319v756q0 74 68 74q23 0 43.5 -12.5t30.5 -40.5v-799q-10 -29 -30.5 -42t-43.5 -13q-68 0 -68 77z" />
<glyph unicode="e" d="M35 307v758q0 330 293 330q299 0 299 -330v-401q0 -12 -4.5 -23.5t-8.5 -22.5q4 -10 8.5 -21t4.5 -24v-266q0 -325 -297 -325h-2q-293 0 -293 325zM115 307q0 -246 213 -246q221 0 221 246v266h-154v-264q0 -82 -67 -82q-61 0 -62 80v357h283v401q0 250 -221 250 q-213 0 -213 -250v-758zM266 782v283q0 80 62 80q68 0 67 -80v-283h-129z" />
<glyph unicode="f" horiz-adv-x="485" d="M-6 1153v143q0 27 17.5 47.5t41.5 28.5v92q0 70 14.5 129.5t46 102.5t83 66.5t125.5 23.5q27 0 56.5 -3t55 -12.5t42 -28t16.5 -46.5v-142q0 -37 -21.5 -58t-54.5 -21q-18 0 -33 6h-10v-107h37q33 0 55 -22.5t22 -55.5v-143q0 -35 -22.5 -57.5t-54.5 -22.5h-37v-995 q0 -33 -22.5 -55.5t-55.5 -22.5h-164q-33 0 -55.5 22.5t-22.5 55.5v997q-25 6 -42 27.5t-17 50.5zM74 1153h57v-1075h164v1075h115v143h-115v164q0 63 24.5 81t69.5 18q18 0 25 -5v142q-45 10 -92 10q-106 0 -148.5 -67.5t-42.5 -174.5v-168h-57v-143z" />
<glyph unicode="g" horiz-adv-x="708" d="M35 358v719q0 158 63.5 233.5t186.5 75.5q68 0 121 -24q18 12 38 12h138q33 0 56.5 -22.5t23.5 -55.5v-1280q0 -152 -74 -230.5t-232 -78.5q-86 0 -145 20.5t-94 59.5t-50.5 97.5t-15.5 131.5v50q0 47 41 67q-57 76 -57 225zM115 358q0 -119 42 -171t132 -52q88 0 135 58 v-185q0 -80 -72 -80q-76 0 -76 80v58h-147v-50q0 -111 49 -171t178 -60q117 0 171.5 59.5t54.5 171.5v1280h-138q-6 -37 -6 -79q-23 47 -58.5 68.5t-94.5 21.5q-170 0 -170 -230v-719zM274 367v692q0 71 68 71h2q57 0 80 -53v-731q-25 -53 -80 -53q-70 0 -70 74z" />
<glyph unicode="h" horiz-adv-x="706" d="M47 78v1618q0 35 22.5 57.5t55.5 22.5h164q33 0 56.5 -22.5t23.5 -57.5v-310q14 4 31.5 6.5t33.5 2.5q231 0 232 -303v-1014q0 -33 -22.5 -55.5t-55.5 -22.5h-166q-20 0 -37.5 10t-28.5 27q-10 -16 -27.5 -26.5t-39.5 -10.5h-164q-33 0 -55.5 22.5t-22.5 55.5zM125 78 h164v1028q12 27 32.5 38t43.5 11q57 0 57 -74v-1003h166v1014q0 223 -154 223q-90 0 -145 -68v449h-164v-1618z" />
<glyph unicode="i" horiz-adv-x="419" d="M51 78v1218q0 29 18.5 50.5t47.5 25.5q-29 4 -47.5 26.5t-18.5 51.5v246q0 35 22.5 57.5t55.5 22.5h164q33 0 55.5 -22.5t22.5 -57.5v-246q0 -29 -18.5 -51.5t-47.5 -26.5q29 -4 47.5 -25.5t18.5 -50.5v-1218q0 -33 -22.5 -55.5t-55.5 -22.5h-164q-33 0 -55.5 22.5 t-22.5 55.5zM129 78h164v1218h-164v-1218zM129 1450h164v246h-164v-246z" />
<glyph unicode="j" horiz-adv-x="448" d="M-72 -33q0 35 22.5 56.5t55.5 21.5q16 0 23.5 -4t27.5 -4q18 0 19 16v1243q0 29 18.5 50.5t46.5 25.5q-29 4 -47 26.5t-18 51.5v246q0 35 23.5 57.5t56.5 22.5h163q33 0 55.5 -22.5t22.5 -57.5v-246q0 -29 -19.5 -51.5t-47.5 -26.5q29 -4 48 -25.5t19 -50.5v-1243 q0 -178 -79.5 -257t-237.5 -79q-66 0 -109 16.5t-43 69.5v164zM8 -33v-164q27 -8 72 -8q119 0 179 61.5t60 196.5v1243h-163v-1243q0 -94 -76 -94q-18 0 -36.5 2t-35.5 6zM156 1450h163v246h-163v-246z" />
<glyph unicode="k" horiz-adv-x="700" d="M45 78v1618q0 35 22.5 57.5t55.5 22.5h162q33 0 56.5 -22.5t23.5 -57.5v-428l18 55q8 23 30.5 37t45.5 14h168q35 0 58.5 -21.5t23.5 -52.5q0 -16 -7 -30l-186 -510l193 -660q4 -16 4 -26q0 -31 -22.5 -52.5t-57.5 -21.5h-178q-25 0 -48.5 17.5t-29.5 41.5l-12 50v-31 q0 -33 -24 -55.5t-56 -22.5h-162q-33 0 -55.5 22.5t-22.5 55.5zM123 78h162v291v96t-1 81t-1 73.5v76.5q10 -37 20 -74.5t28.5 -102t47.5 -169t76 -272.5h178l-199 686l193 532h-168q-55 -154 -100.5 -285.5t-75.5 -232.5q0 68 1 129.5t1 151.5v637h-162v-1618z" />
<glyph unicode="l" horiz-adv-x="415" d="M47 78v1618q0 35 22.5 57.5t55.5 22.5h164q33 0 56.5 -22.5t23.5 -57.5v-1618q0 -33 -23.5 -55.5t-56.5 -22.5h-164q-33 0 -55.5 22.5t-22.5 55.5zM125 78h164v1618h-164v-1618z" />
<glyph unicode="m" horiz-adv-x="978" d="M47 78v1218q0 33 22.5 55.5t55.5 22.5h139q16 0 41 -14q53 35 119 35q86 0 141 -43q66 43 148 43q115 0 170 -78t55 -230v-1009q0 -33 -22.5 -55.5t-55.5 -22.5h-164q-37 0 -61 29q-12 -12 -27.5 -20.5t-34.5 -8.5h-161q-37 0 -62 29q-12 -12 -27.5 -20.5t-33.5 -8.5 h-164q-33 0 -55.5 22.5t-22.5 55.5zM125 78h164v1028q12 27 30.5 38t36.5 11q55 0 56 -70v-1007h161v1028q27 49 70 49q53 0 53 -70v-1007h164v1009q0 227 -147 228q-53 0 -94 -24.5t-66 -65.5q-31 90 -129 90q-96 0 -154 -96q0 41 -6 77h-139v-1218z" />
<glyph unicode="n" horiz-adv-x="706" d="M47 78v1218q0 33 22.5 55.5t55.5 22.5h139q16 0 41 -14q57 35 127 35q233 0 234 -303v-1014q0 -33 -22.5 -55.5t-55.5 -22.5h-166q-20 0 -37.5 10t-28.5 27q-10 -16 -27.5 -26.5t-39.5 -10.5h-164q-33 0 -55.5 22.5t-22.5 55.5zM125 78h164v1028q12 27 32.5 38t43.5 11 q57 0 57 -74v-1003h166v1014q0 223 -156 223q-104 0 -162 -98q0 43 -6 79h-139v-1218z" />
<glyph unicode="o" horiz-adv-x="681" d="M35 303v768q0 158 73.5 241t233.5 83q152 0 229.5 -83t77.5 -241v-768q0 -158 -77.5 -239.5t-229.5 -81.5q-160 0 -233.5 81.5t-73.5 239.5zM115 303q0 -119 54 -180.5t173 -61.5q227 0 227 242v768q0 119 -57 181.5t-170 62.5q-119 0 -173 -62.5t-54 -181.5v-768z M272 307v758q0 41 14.5 61.5t55.5 20.5t54.5 -20.5t13.5 -61.5v-756q0 -41 -13.5 -61.5t-54.5 -20.5t-55.5 19.5t-14.5 60.5z" />
<glyph unicode="p" horiz-adv-x="708" d="M47 -195v1491q0 33 22.5 55.5t55.5 22.5h139q16 0 37 -10q47 22 115 22h6q123 0 186.5 -75.5t63.5 -233.5v-794q0 -160 -62.5 -230.5t-191.5 -70.5q-12 0 -25.5 1t-23.5 3v-181q0 -33 -23.5 -55t-56.5 -22h-164q-33 0 -55.5 22.5t-22.5 54.5zM125 -195h164v312 q43 -55 129 -56q90 0 133 51.5t43 170.5v794q0 117 -44 173.5t-128 56.5q-63 0 -98 -21.5t-54 -68.5q0 39 -6 79h-139v-1491zM289 279v800q10 29 30.5 41.5t45.5 12.5q35 0 50 -17.5t15 -58.5v-758q0 -74 -65 -74q-25 0 -45.5 12.5t-30.5 41.5z" />
<glyph unicode="q" horiz-adv-x="708" d="M35 283v794q0 158 63.5 233.5t186.5 75.5q35 0 64.5 -7t53.5 -17q18 12 41 12h138q33 0 56.5 -22.5t23.5 -55.5v-1491q0 -33 -24 -55t-56 -22h-164q-33 0 -55.5 22.5t-22.5 54.5v181q-10 -2 -23.5 -3t-25.5 -1q-129 0 -192.5 70.5t-63.5 230.5zM115 283q0 -119 43 -170.5 t133 -51.5q86 0 127 56v-312h164v1491h-138q-6 -41 -6 -79q-18 41 -54 65.5t-99 24.5q-170 0 -170 -230v-794zM276 299v760q0 78 68 78q23 0 43.5 -12.5t30.5 -41.5v-804q-10 -29 -30.5 -41.5t-43.5 -12.5q-68 0 -68 74z" />
<glyph unicode="r" horiz-adv-x="516" d="M47 78v1218q0 33 22.5 55.5t55.5 22.5h139q14 0 35 -10q43 25 104 25q16 0 37 -4.5t38.5 -14.5t28.5 -26.5t11 -40.5v-185q0 -37 -21.5 -58.5t-52.5 -21.5q-18 0 -29.5 8.5t-37.5 8.5h-8v-977q0 -33 -23.5 -55.5t-56.5 -22.5h-164q-33 0 -55.5 22.5t-22.5 55.5zM125 78 h164v1001q14 31 38.5 42.5t49.5 11.5q41 0 63 -15v185q-23 6 -37 6q-90 0 -133 -88q0 39 -6 75h-139v-1218z" />
<glyph unicode="s" horiz-adv-x="659" d="M25 293v192q0 33 23.5 56.5t55.5 23.5h121l-35 39h3q-51 53 -84 94t-51.5 79t-25.5 81t-7 100v117q0 174 76.5 247t222.5 73q88 0 145 -18.5t91 -58.5t48.5 -100.5t14.5 -142.5v-192q0 -33 -22.5 -55.5t-55.5 -22.5h-109l13 -12q29 -31 58.5 -63t39.5 -44 q25 -33 41 -63.5t25.5 -63.5t12.5 -70.5t3 -82.5v-121q0 -160 -77 -231.5t-233 -71.5q-147 0 -220.5 75.5t-73.5 235.5zM104 293q0 -121 53.5 -176.5t161.5 -55.5q117 0 174.5 51.5t57.5 172.5v121q0 76 -13.5 127t-54.5 104t-90 100t-96 107q-23 29 -27 49t-4 49v133 q0 76 62 76q31 0 49 -19.5t18 -56.5v-192h150v192q0 125 -46 182.5t-175 57.5q-106 0 -163 -53.5t-57 -186.5v-117q0 -59 11.5 -107t42.5 -89q47 -59 96 -110.5t96 -110.5q23 -31 30 -51.5t7 -61.5v-131q0 -76 -65 -76q-31 0 -49.5 19.5t-18.5 56.5v188h-150v-192z" />
<glyph unicode="t" horiz-adv-x="485" d="M-8 1153v143q0 27 17.5 47.5t41.5 28.5v309q0 33 22.5 55.5t55.5 22.5h166q33 0 55.5 -22.5t22.5 -55.5v-307h35q33 0 55 -22.5t22 -55.5v-143q0 -35 -22.5 -57.5t-54.5 -22.5h-35v-758q0 -35 12 -34h6q8 2 23 2q33 0 54 -21.5t21 -56.5v-135q0 -29 -14 -45.5 t-34.5 -26.5t-45 -13t-45.5 -3q-154 0 -226.5 88t-72.5 243v762q-25 6 -42 27.5t-17 50.5zM72 1153h57v-840q0 -119 54.5 -185.5t166.5 -66.5q16 0 32.5 2.5t29.5 6.5v135q-6 -2 -13.5 -2h-13.5q-90 0 -90 112v838h113v143h-113v385h-166v-385h-57v-143z" />
<glyph unicode="u" horiz-adv-x="702" d="M41 274v1022q0 33 22.5 55.5t57.5 22.5h162q41 0 65 -35q25 35 66 35h164q33 0 56 -22.5t23 -55.5v-1218q0 -33 -23.5 -55.5t-55.5 -22.5h-140q-23 0 -45 16q-51 -28 -116 -28h-5q-113 0 -172 73.5t-59 212.5zM121 274q0 -100 38 -153t113 -53q104 0 160 88q0 -41 6 -78 h140v1218h-164v-1022q-12 -25 -32 -36t-42 -11q-57 0 -57 74v995h-162v-1022z" />
<glyph unicode="v" horiz-adv-x="657" d="M-6 1296q0 35 22.5 56.5t57.5 21.5h164q29 0 52 -20.5t27 -50.5l11 -115l16 117q4 29 25.5 49t52.5 20h158q35 0 57 -21.5t22 -54.5v-14l-176 -1216q-4 -29 -26.5 -48.5t-50.5 -19.5h-164q-29 0 -51.5 20.5t-26.5 49.5zM74 1296l168 -1218h164l174 1218h-158 q-20 -160 -34.5 -278.5t-26 -212.5t-20.5 -169t-17 -147q-6 72 -13.5 147t-17.5 169t-23.5 213t-31.5 278h-164z" />
<glyph unicode="w" horiz-adv-x="940" d="M0 1290q0 35 20.5 59.5t57.5 24.5h151q33 0 56.5 -22.5t25.5 -71.5q4 47 27.5 70.5t52.5 23.5h152q29 0 52 -26.5t30 -92.5q6 66 29.5 92.5t54.5 26.5h151q37 0 57.5 -25.5t20.5 -60.5l-127 -1216q-2 -31 -25.5 -51.5t-52.5 -20.5h-192q-31 0 -55.5 21.5t-24.5 70.5 q0 -37 -21.5 -64.5t-60.5 -27.5h-191q-29 0 -51 21.5t-26 52.5zM78 1296l110 -1218h191l86 844l76 -844h192l127 1218h-151l-82 -897l-84 897h-152l-96 -897l-66 897h-151z" />
<glyph unicode="x" horiz-adv-x="671" d="M-14 76q0 6 4 22l157 633l-133 547q-2 6 -2 20q0 33 21.5 54.5t56.5 21.5h172q27 0 49.5 -18.5t26.5 -44.5q8 27 29.5 45t50.5 18h162q35 0 57 -21.5t22 -54.5q0 -14 -2 -20l-135 -545l160 -635q2 -8 2 -22q0 -33 -21.5 -54.5t-56.5 -21.5h-170q-14 0 -26.5 7t-24.5 27.5 t-25.5 57.5t-25.5 98q-6 -27 -10.5 -59.5t-14.5 -62t-28.5 -49t-51.5 -19.5h-161q-35 0 -58.5 21.5t-23.5 54.5zM68 78h161q18 80 35 163t30 155.5t23.5 131t14.5 88.5q4 -31 15 -89t25.5 -130.5t31 -154.5t32.5 -164h170l-164 653l138 565h-162q-14 -61 -27.5 -123.5 t-24 -120t-17.5 -106.5t-11 -84q-4 35 -12.5 84t-18.5 106.5t-21.5 120t-23.5 123.5h-172l137 -567z" />
<glyph unicode="y" horiz-adv-x="657" d="M-8 1298q0 33 23.5 54.5t58.5 21.5h170q29 0 51 -21.5t27 -49.5l12 -72l10 74q4 29 21.5 49t56.5 20h158q35 0 57 -21.5t22 -54.5l-165 -1185q-12 -92 -32 -166t-55.5 -124t-93 -78t-149.5 -28q-29 0 -55.5 3.5t-48 12.5t-35 26.5t-13.5 45.5v164q0 35 21.5 56.5 t54.5 21.5q14 0 25.5 -4t40.5 -4q12 0 15 5t3 15v12.5t-2 16.5zM74 1296l170 -1179l-4 -27q-10 -59 -25.5 -94t-56.5 -35q-43 0 -68 8v-164q37 -10 74 -10q68 0 110.5 22.5t70.5 65.5t43 103.5t28 136.5l164 1173h-158q-20 -162 -34.5 -285.5t-25 -223t-19.5 -182.5 t-17 -163q-6 80 -12.5 163t-16.5 182.5t-22.5 223.5t-30.5 285h-170z" />
<glyph unicode="z" horiz-adv-x="614" d="M25 78v164l233 815h-152q-33 0 -56 22.5t-23 55.5v161q0 33 23.5 55.5t55.5 22.5h410q33 0 55.5 -22.5t22.5 -55.5v-166l-225 -806h145q33 0 55.5 -22.5t22.5 -55.5v-168q0 -33 -22.5 -55.5t-55.5 -22.5h-412q-33 0 -55 22.5t-22 55.5zM102 78h412v168h-248l250 899v151 h-410v-161h254l-258 -902v-155z" />
<glyph unicode="{" horiz-adv-x="647" d="M6 887q0 29 19 51l147 186q6 8 9 17.5t3 27.5v414q0 350 359 350h16q33 0 55.5 -23.5t22.5 -56.5v-131q0 -33 -22.5 -55t-55.5 -22h-14q-74 0 -74 -68v-399q0 -80 -15.5 -126t-60.5 -100l-51 -63l53 -68q43 -53 58.5 -101t15.5 -124v-397q0 -68 74 -68h14 q33 0 55.5 -22.5t22.5 -55.5v-131q0 -35 -22.5 -57.5t-55.5 -22.5h-16q-358 0 -359 348v416q0 16 -3 24.5t-9 18.5l-149 191q-16 20 -17 47zM84 889l149 -189q16 -20 23.5 -38.5t7.5 -55.5v-416q0 -268 279 -268h16v131h-14q-78 0 -115 34t-37 112v397q0 59 -12 97t-45 79 l-92 117l92 115q33 41 45 74.5t12 99.5v399q0 78 37 111.5t115 33.5h14v131h-16q-279 0 -279 -270v-414q0 -37 -7 -55t-24 -39z" />
<glyph unicode="|" horiz-adv-x="507" d="M109 -78v1931q0 33 22.5 56.5t54.5 23.5h133q33 0 55.5 -23.5t22.5 -56.5v-1931q0 -35 -22.5 -57.5t-55.5 -22.5h-133q-33 0 -55 22.5t-22 57.5zM186 -78h133v1931h-133v-1931z" />
<glyph unicode="}" horiz-adv-x="647" d="M6 53q0 33 22.5 55.5t55.5 22.5h14q74 0 74 68v397q0 76 15.5 124t58.5 101l53 68q-37 45 -61.5 76.5t-39 61.5t-20.5 64.5t-6 86.5v399q0 68 -74 68h-14q-33 0 -55.5 22.5t-22.5 54.5v131q0 33 22.5 56.5t55.5 23.5h16q358 0 359 -350v-414q0 -18 3 -27t7 -18l149 -186 q18 -23 19 -51q0 -27 -16 -47l-152 -191q-4 -8 -7 -17t-3 -26v-416q0 -348 -359 -348h-16q-33 0 -55.5 22.5t-22.5 57.5v131zM84 53v-131h16q279 0 279 268v416q0 37 7 55.5t24 38.5l149 189l-149 186q-16 20 -23.5 39t-7.5 55v414q0 270 -279 270h-16v-131h14 q78 0 115 -33.5t37 -111.5v-399q0 -33 3 -56.5t9 -43t17.5 -37t27.5 -37.5l92 -115l-92 -117q-33 -41 -46 -79t-11 -97v-397q0 -78 -37 -112t-115 -34h-14z" />
<glyph unicode="~" horiz-adv-x="1028" d="M47 782v162q0 27 22.5 53.5t60.5 49t87 37t105 14.5q57 0 109 -14.5t98 -31t86 -30.5t75 -14q47 0 84 15t76 56q25 27 59 27q29 0 52.5 -21.5t23.5 -58.5v-162q0 -10 -10 -31.5t-19 -27.5q-57 -47 -120.5 -69.5t-151.5 -22.5q-53 0 -100 14t-90 31.5t-84 32t-82 14.5 q-37 0 -72 -15.5t-72 -58.5q-25 -29 -61 -29q-29 0 -52.5 21.5t-23.5 58.5zM125 782q53 59 101 80t102 21q43 0 87 -14.5t88 -31t89 -30.5t92 -14q72 0 124 17t99 54v162q-53 -53 -102 -75.5t-115 -22.5q-43 0 -85 14t-86 30.5t-93 31t-104 14.5q-70 0 -118 -22.5t-79 -51.5 v-162z" />
<glyph unicode="&#xa1;" horiz-adv-x="450" d="M53 78v721l37 590q0 6 1 11t3 11q-16 10 -28.5 28.5t-12.5 43.5v213q0 35 22.5 57.5t55.5 22.5h188q33 0 55.5 -22.5t22.5 -57.5v-213q0 -23 -12 -41.5t-29 -28.5l4 -12t2 -12l35 -586v-725q0 -33 -22.5 -55.5t-55.5 -22.5h-188q-33 0 -55.5 22.5t-22.5 55.5zM131 78h188 v723l-36 583h-113l-39 -587v-719zM131 1483h188v213h-188v-213z" />
<glyph unicode="&#xa2;" d="M35 502v749q0 119 47 201t149 111v133q0 35 24 57.5t56 22.5h60q35 0 57.5 -22.5t22.5 -57.5v-133q98 -31 141 -113t43 -197v-268q0 -33 -22.5 -55.5t-55.5 -22.5h-113v-67h117q33 0 55.5 -22.5t22.5 -55.5v-264q0 -117 -45 -197t-143 -111v-112q0 -33 -22.5 -55.5 t-57.5 -22.5h-60q-33 0 -56.5 22.5t-23.5 55.5v108q-100 29 -148 113t-48 203zM115 502q0 -104 47 -172t149 -76v-176h60v178q100 10 145 74.5t45 167.5v264h-137v-260q0 -70 -57 -80v907q57 -10 57 -76v-268h133v268q0 102 -43 169t-143 77v197h-60v-197 q-102 -10 -149 -75.5t-47 -172.5v-749zM258 502v751q0 66 61 76v-905q-61 2 -61 78z" />
<glyph unicode="&#xa3;" horiz-adv-x="673" d="M14 61v193q23 33 47.5 58.5t55.5 37.5q2 35 4 65.5t3 66.5t1 80v108v237h-27q-33 0 -55.5 22.5t-22.5 55.5v137q0 33 23 56.5t55 23.5h27v201q0 188 83 289.5t241 101.5q31 0 62.5 -4t57 -14.5t42 -28.5t16.5 -47v-166q0 -37 -21.5 -59.5t-52.5 -22.5q-16 0 -35.5 8 t-34.5 8q-43 0 -43 -63v-203h109q33 0 55.5 -23.5t22.5 -56.5v-137q0 -33 -22.5 -55.5t-55.5 -22.5h-109v-239q0 -125 -4 -209t-12 -156q14 -6 35 -6q18 0 30.5 9t24.5 20.5t25.5 20.5t33.5 9h9q33 0 56.5 -23.5t23.5 -56.5v-180q-84 -113 -209 -112q-53 0 -94.5 16 t-75.5 33h2q-18 10 -36 17t-28 7q-14 0 -26.5 -12t-26.5 -25.5t-30.5 -25.5t-37.5 -12h-8q-33 0 -55.5 23.5t-22.5 55.5zM92 61h8q31 47 58.5 60.5t62.5 13.5q25 0 51.5 -11t55 -24.5t59.5 -25t66 -11.5q88 0 129 60v153h-9q-23 -35 -50 -46t-64 -11t-67 13.5t-54 23.5 q6 43 10 85t7 91t5 106.5t2 129.5v317h187v137h-187v283q0 68 29 105.5t92 37.5q31 0 66 -14v166q-18 8 -45 11t-55 3q-119 0 -181.5 -81t-62.5 -230v-281h-107v-137h107v-315q0 -74 -1 -125t-2 -92t-4 -79t-8 -87q-35 -4 -58 -20.5t-40 -39.5v-166z" />
<glyph unicode="&#xa4;" horiz-adv-x="1075" d="M4 492q0 27 25 55l84 82q-51 94 -52 219q0 59 11.5 112.5t42.5 106.5q-16 14 -35 29.5t-34 33t-26.5 35t-11.5 37.5q0 27 21 51l96 101q25 27 59 26q31 0 56 -24l79 -84q96 53 218 53q61 0 113 -13.5t106 -41.5l73 84q25 27 58 26q33 0 59 -26l98 -101q20 -25 21 -51 q0 -33 -23 -55l-84 -80q29 -49 42.5 -104.5t13.5 -114.5q0 -63 -13.5 -115.5t-42.5 -103.5l86 -82q23 -27 23 -58q0 -29 -23 -55l-98 -98q-23 -23 -55 -23q-35 0 -57 25l-80 86q-47 -23 -102.5 -38t-114.5 -15q-113 0 -215 51l-84 -86q-23 -23 -58 -23q-33 0 -55 23l-96 98 q-25 29 -25 58zM84 489l96 -98l129 133q45 -35 104.5 -54t123.5 -19q66 0 122 19t107 54l125 -133l98 98l-129 127q35 47 55.5 106.5t20.5 125.5q0 125 -76 229l127 125l-98 101l-121 -136q-102 80 -231 80q-133 0 -230 -78l-125 134l-96 -101l129 -125 q-35 -53 -55.5 -109.5t-20.5 -119.5q0 -66 20.5 -125t55.5 -107zM289 848q0 51 19.5 96t53 79t78.5 53.5t97 19.5q51 0 96 -19.5t78.5 -53.5t54 -79t20.5 -96q0 -53 -20.5 -98t-54 -79t-78.5 -52.5t-96 -18.5t-96.5 18.5t-79 52.5t-53 79t-19.5 98zM369 848q0 -72 49 -121 t119 -49q35 0 65.5 13.5t54 36t38 53t14.5 67.5q0 70 -51.5 119t-120.5 49q-70 0 -119 -49t-49 -119z" />
<glyph unicode="&#xa5;" horiz-adv-x="782" d="M-4 1698q0 35 22.5 56.5t57.5 21.5h194q25 0 48.5 -18.5t27.5 -45.5l49 -256l54 256q4 25 26.5 44.5t48.5 19.5h181q35 0 56 -21.5t21 -56.5v-9.5t-2 -11.5l-227 -899h133q33 0 55.5 -22.5t22.5 -55.5v-141q0 -33 -22.5 -56.5t-55.5 -23.5h-135v-10h135q33 0 55.5 -22.5 t22.5 -55.5v-141q0 -33 -22.5 -55.5t-55.5 -22.5h-135v-94q0 -33 -22.5 -55.5t-57.5 -22.5h-170q-33 0 -56.5 22.5t-23.5 55.5v94h-135q-33 0 -55.5 22.5t-22.5 55.5v141q0 33 22.5 55.5t55.5 22.5h135v10h-135q-33 0 -55.5 23.5t-22.5 56.5v141q0 33 22.5 55.5t55.5 22.5 h135l-221 899q-4 16 -4 21zM76 1696l225 -916v-80h-215v-141h215v-168h-215v-141h215v-172h170v172h215v141h-215v168h215v141h-215v80l234 916h-181l-129 -639l-125 639h-194z" />
<glyph unicode="&#xa6;" horiz-adv-x="507" d="M109 -78v791q0 35 22.5 57.5t54.5 22.5h133q33 0 55.5 -22.5t22.5 -57.5v-791q0 -35 -22.5 -57.5t-55.5 -22.5h-133q-33 0 -55 22.5t-22 57.5zM109 1061v792q0 33 22.5 56.5t54.5 23.5h133q33 0 55.5 -23.5t22.5 -56.5v-792q0 -33 -22.5 -55.5t-55.5 -22.5h-133 q-33 0 -55 22.5t-22 55.5zM186 -78h133v791h-133v-791zM186 1061h133v792h-133v-792z" />
<glyph unicode="&#xa7;" horiz-adv-x="677" d="M25 750v137q0 145 75 221q-27 45 -44 99.5t-17 123.5v152q0 311 303 311q162 0 228.5 -76t66.5 -235v-199q0 -33 -22.5 -56.5t-55.5 -23.5h-129l31 -33q51 -61 87 -107t56.5 -90t29.5 -91t9 -113v-137q0 -72 -19.5 -127t-54.5 -92q31 -47 45.5 -99.5t14.5 -126.5v-151 q0 -309 -303 -309q-160 0 -227.5 75.5t-67.5 233.5v199q0 33 23.5 56t56.5 23h122q-8 6 -13 14.5t-13 18.5q-12 16 -23.5 28.5t-24 26t-26.5 31t-33 45.5q-41 61 -58 124t-17 147zM104 750q0 -72 12.5 -122t49.5 -104q45 -63 97 -119.5t99 -121.5q16 -23 21.5 -45.5 t5.5 -51.5v-149q0 -72 -67 -72q-37 0 -50.5 20.5t-13.5 61.5v189h-147v-199q0 -119 49 -175.5t166 -56.5q225 0 225 232v151q0 41 -5 72t-15.5 57.5t-29 53t-42.5 59.5q106 43 106 203v137q0 72 -12 122t-49 103q-47 63 -98.5 122t-98.5 120q-18 23 -23 45.5t-5 50.5v150 q0 72 67 71q37 0 51.5 -20.5t14.5 -60.5v-189h147v199q0 119 -49 175t-168 56q-223 0 -223 -231v-152q0 -41 5 -72.5t16.5 -59.5t28.5 -53.5t42 -55.5q-106 -45 -107 -203v-137zM262 752v135q0 35 9.5 52t43.5 22l43 -52q29 -35 39.5 -66.5t10.5 -74.5v-135 q0 -35 -10.5 -53.5t-45.5 -22.5l-41 53q-29 37 -40 66t-9 76z" />
<glyph unicode="&#xa8;" horiz-adv-x="712" d="M47 1393v245q0 33 22.5 55.5t55.5 22.5h164q23 0 40 -11t27 -28q20 39 68 39h166q33 0 55.5 -22.5t22.5 -55.5v-245q0 -33 -22.5 -56.5t-55.5 -23.5h-166q-47 0 -68 39q-10 -16 -27.5 -27.5t-39.5 -11.5h-164q-33 0 -55.5 23.5t-22.5 56.5zM125 1393h164v245h-164v-245z M424 1393h166v245h-166v-245z" />
<glyph unicode="&#xaa;" horiz-adv-x="536" d="M57 764v98q0 53 10.5 89t26.5 63q-27 25 -26 61v142q0 211 196 210q203 0 203 -210v-519q2 -10 3 -17t1 -17q0 -31 -21.5 -52.5t-56.5 -21.5h-108q-27 -10 -62 -10q-80 0 -123 42t-43 142zM135 764q0 -57 23.5 -81t64.5 -24q27 0 42.5 11.5t27.5 31.5q0 -23 4 -34h96 q-6 14 -6 57v492q0 133 -123 133q-119 0 -119 -133v-142h93v142q0 27 24 26q23 0 23 -26v-158q-33 -16 -60.5 -31.5t-47 -37t-31 -51.5t-11.5 -77v-98zM240 784v121q0 29 11 43.5t34 26.5v-197q-6 -16 -21 -16q-25 0 -24 22z" />
<glyph unicode="&#xab;" horiz-adv-x="876" d="M12 641v186q0 16 11.5 37t23.5 29l313 209q25 14 48 14q31 0 52 -22.5t21 -57.5v-110l262 176q12 6 23.5 10t24.5 4q31 0 52 -22.5t21 -57.5v-153q0 -16 -11 -37t-24 -29l-127 -82l129 -90q12 -8 22.5 -28.5t10.5 -36.5v-160q0 -37 -22.5 -58.5t-50.5 -21.5q-27 0 -50 16 l-260 183v-119q0 -37 -22.5 -58.5t-50.5 -21.5q-31 0 -50 16l-313 219q-12 8 -22.5 30t-10.5 36zM90 641l313 -221v160l-227 155l227 148v153l-313 -209v-186zM319 735l76 -53v102zM473 641l313 -221v160l-225 155l225 148v153l-313 -209v-186z" />
<glyph unicode="&#xac;" horiz-adv-x="950" d="M14 813v174q0 33 22.5 55.5t55.5 22.5h731q33 0 56.5 -22.5t23.5 -55.5v-909q0 -33 -23.5 -55.5t-56.5 -22.5h-168q-33 0 -56.5 22.5t-23.5 55.5v657h-483q-33 0 -55.5 22.5t-22.5 55.5zM92 813h563v-735h168v909h-731v-174z" />
<glyph unicode="&#xad;" horiz-adv-x="466" d="M0 823v140q0 35 22.5 57t55.5 22h315q33 0 55.5 -22.5t22.5 -56.5v-140q0 -33 -22.5 -55.5t-55.5 -22.5h-315q-33 0 -55.5 23t-22.5 55zM78 823h315v140h-315v-140z" />
<glyph unicode="&#xaf;" horiz-adv-x="710" d="M47 1444v141q0 33 22.5 55.5t55.5 22.5h461q33 0 55.5 -22.5t22.5 -55.5v-141q0 -33 -23 -56.5t-55 -23.5h-461q-33 0 -55.5 23.5t-22.5 56.5zM125 1444h461v141h-461v-141z" />
<glyph unicode="&#xb0;" horiz-adv-x="712" d="M35 1438q0 74 19.5 136t59.5 108.5t100 72t142 25.5q78 0 138.5 -25.5t100.5 -72t60.5 -109t20.5 -135.5q0 -150 -81 -243t-239 -93q-164 0 -242.5 93t-78.5 243zM115 1438q0 -115 59 -186.5t182 -71.5q121 0 181.5 71.5t60.5 186.5q0 113 -60.5 187.5t-181.5 74.5 q-123 0 -182 -75t-59 -187zM213 1438q0 160 141 159q72 0 105 -37.5t33 -121.5q0 -82 -33 -120t-105 -38q-141 0 -141 158zM291 1438q0 -80 63 -80q59 0 60 80q0 82 -60 82q-63 0 -63 -82z" />
<glyph unicode="&#xb1;" horiz-adv-x="1026" d="M45 305v135q0 33 22.5 55.5t55.5 22.5h246v240h-244q-33 0 -55.5 22.5t-22.5 55.5v135q0 33 22.5 56.5t55.5 23.5h244v241q0 33 22.5 55.5t54.5 22.5h136q33 0 56.5 -22.5t23.5 -55.5v-241h243q33 0 55.5 -23.5t22.5 -56.5v-135q0 -33 -22.5 -55.5t-55.5 -22.5h-243v-240 h241q33 0 55.5 -22.5t22.5 -55.5v-135q0 -33 -22.5 -56.5t-55.5 -23.5h-780q-33 0 -55.5 23.5t-22.5 56.5zM123 305h780v135h-780v-135zM125 836h321v-322h136v322h323v135h-323v321h-136v-321h-321v-135z" />
<glyph unicode="&#xb2;" horiz-adv-x="475" d="M29 909v148q0 43 4 76.5t15 64.5t28.5 63.5t46.5 77.5l16 27h-30q-33 0 -56.5 22.5t-23.5 57.5v141q0 119 51 168t158 49q211 0 211 -217v-98q0 -133 -95 -272h2q-31 -47 -44 -74t-17 -49h74q35 0 57.5 -23.5t22.5 -56.5v-105q0 -35 -23 -57.5t-57 -22.5h-260 q-33 0 -56.5 22.5t-23.5 57.5zM109 909h260v105h-154v43q0 25 2 44t9 41.5t22.5 50.5t40.5 67q80 123 80 229v98q0 139 -131 139q-66 0 -97.5 -31.5t-31.5 -107.5v-141h106v143q0 29 23 29q25 0 24 -29v-88q0 -57 -17.5 -101t-58.5 -104q-25 -37 -40 -65.5t-23 -55t-11 -54 t-3 -64.5v-148z" />
<glyph unicode="&#xb3;" horiz-adv-x="475" d="M27 1036v160q0 33 23.5 55.5t55.5 22.5h13v90h-8q-33 0 -56.5 23.5t-23.5 56.5v143q0 119 49 168t158 49t157.5 -51t48.5 -168v-184q0 -39 -16 -76q10 -18 14 -39.5t4 -50.5v-199q0 -100 -51 -158.5t-157 -58.5q-104 0 -157.5 58.5t-53.5 158.5zM106 1036q0 -63 33 -100 t99 -37t98.5 37t32.5 100v199q0 66 -50 84q47 29 48 82v184q0 76 -32 108.5t-97 32.5q-66 0 -96.5 -31.5t-30.5 -107.5v-143h104v145q0 29 23 29q27 0 26 -29v-188q0 -31 -20 -31h-47v-100h41q27 0 26 -31v-203q0 -29 -26 -28q-23 0 -23 28v160h-109v-160z" />
<glyph unicode="&#xb4;" horiz-adv-x="677" d="M47 1362q0 27 14 49l215 318q8 12 29 23t37 11h211q35 0 57.5 -22.5t22.5 -52.5q0 -31 -21 -54l-270 -317q-8 -10 -27.5 -18.5t-31.5 -8.5h-158q-35 0 -56.5 21.5t-21.5 50.5zM125 1368h158l270 318h-211z" />
<glyph unicode="&#xb6;" horiz-adv-x="958" d="M6 1470q0 63 15.5 119t48 98t86 65.5t131.5 23.5h583q33 0 56.5 -22.5t23.5 -57.5v-174q0 -33 -23.5 -55.5t-56.5 -22.5h-39v-1628q0 -33 -22.5 -56.5t-54.5 -23.5h-152q-33 0 -56.5 23.5t-23.5 56.5v118q-18 -96 -83.5 -158.5t-180.5 -62.5q-25 0 -53.5 3t-54 13.5 t-42 29t-16.5 46.5v125q0 35 21.5 57.5t56.5 22.5q10 0 24.5 -3t16.5 -3q8 0 8 21v1157q-115 16 -164 95t-49 193zM84 1470q0 -94 45 -154.5t152 -60.5h16v-1230q0 -55 -19.5 -77t-66.5 -22h-17.5t-21.5 4v-125q41 -14 86 -14q98 0 146.5 66.5t48.5 165.5v1499h149v-1706 h152v1706h116v174h-583q-111 0 -157 -64.5t-46 -161.5zM209 1432q0 41 14.5 65.5t50.5 24.5h23v-176h-29q-31 0 -45 25.5t-14 60.5z" />
<glyph unicode="&#xb7;" horiz-adv-x="395" d="M35 766v246q0 35 23.5 57.5t56.5 22.5h168q33 0 56 -22.5t23 -57.5v-246q0 -33 -23.5 -55.5t-55.5 -22.5h-168q-33 0 -56.5 22.5t-23.5 55.5zM115 766h168v246h-168v-246z" />
<glyph unicode="&#xb8;" horiz-adv-x="387" d="M47 39q0 33 22.5 56.5t55.5 23.5h137q33 0 55.5 -23.5t22.5 -56.5v-172q0 -72 -39 -116t-127 -44h-33q-33 0 -55.5 22.5t-22.5 55.5v65q-16 23 -16 48v141zM125 39v-141h65v-33q0 -25 -20 -25h-29v-55h33q47 0 67.5 22.5t20.5 59.5v172h-137z" />
<glyph unicode="&#xb9;" horiz-adv-x="368" d="M20 1552v105q0 29 16.5 48t39.5 28q6 27 27.5 44t50.5 17h96q33 0 55.5 -22.5t22.5 -55.5v-807q0 -35 -22.5 -57.5t-55.5 -22.5h-107q-33 0 -55 22.5t-22 57.5v572q-20 10 -33 29.5t-13 41.5zM98 1552h45v-643h107v807h-96v-20q0 -39 -35 -39h-21v-105z" />
<glyph unicode="&#xba;" horiz-adv-x="544" d="M66 793v421q0 213 204 213q207 0 207 -213v-421q0 -213 -207 -213q-205 0 -204 213zM143 793q0 -133 127 -134q129 0 129 134v421q0 135 -129 136q-127 0 -127 -136v-421zM248 797v413q0 29 22 29q25 0 25 -29v-413q0 -31 -25 -31q-23 0 -22 31z" />
<glyph unicode="&#xbb;" horiz-adv-x="876" d="M12 420v160q0 16 10.5 36.5t22.5 28.5l131 90q-23 14 -51.5 29.5t-53 34t-42 39t-17.5 45.5v153q0 35 21.5 57.5t50.5 22.5q25 0 49 -14l262 -176v110q0 35 21.5 57.5t50.5 22.5q25 0 49 -14l313 -209q12 -8 23.5 -28.5t11.5 -37.5v-186q0 -14 -10 -35.5t-23 -30.5 l-313 -219q-10 -10 -23.5 -13t-25.5 -3q-29 0 -51.5 21.5t-22.5 58.5v119l-260 -183q-10 -10 -23.5 -13t-25.5 -3q-29 0 -51.5 21.5t-22.5 58.5zM90 420l313 221v186l-313 209v-153l227 -148l-227 -155v-160zM473 420l313 221v186l-313 209v-153l227 -148l-227 -155v-160z M481 680l80 55q-20 12 -39.5 23.5t-40.5 25.5v-104z" />
<glyph unicode="&#xbc;" horiz-adv-x="1060" d="M29 74q0 20 8 37l323 720q-8 -2 -22 -2h-107q-33 0 -55 22.5t-22 57.5v572q-45 23 -45 71v105q0 59 57 76q4 27 25.5 44t50.5 17h96q33 0 56.5 -22.5t23.5 -55.5v-758l342 771q6 16 29.5 31.5t41.5 15.5h121q35 0 57.5 -21.5t22.5 -54.5q0 -18 -8 -35l-719 -1618 q-10 -18 -30.5 -32.5t-43.5 -14.5h-120q-35 0 -58.5 20.5t-23.5 53.5zM111 78h120l721 1618h-121zM186 1552h45v-643h107v807h-96v-20q0 -39 -35 -39h-21v-105zM555 215v100l168 574q6 23 28.5 40t47.5 17h98q33 0 55.5 -23.5t22.5 -56.5v-483q39 -23 39 -66v-102 q0 -47 -39 -70v-86q0 -33 -22.5 -56t-55.5 -23h-98q-33 0 -56.5 23.5t-23.5 55.5v76h-86q-33 0 -55.5 23.5t-22.5 56.5zM633 215h166v-156h98v156h39v102h-39v549h-98l-166 -559v-92zM727 317q18 61 31.5 106.5t23 77t14.5 54.5t9 41q0 -37 -3 -98.5t-3 -180.5h-72z" />
<glyph unicode="&#xbd;" horiz-adv-x="1060" d="M29 74q0 20 8 37l323 720q-8 -2 -22 -2h-107q-33 0 -55 22.5t-22 57.5v572q-45 23 -45 71v105q0 59 57 76q4 27 25.5 44t50.5 17h96q33 0 56.5 -22.5t23.5 -55.5v-758l342 771q6 16 29.5 31.5t41.5 15.5h121q35 0 57.5 -21.5t22.5 -54.5q0 -18 -8 -35l-322 -723 q20 6 45 10t54 4q209 0 209 -219v-98q0 -131 -95 -270h3q-31 -47 -44.5 -75t-15.5 -50h74q33 0 55.5 -22.5t22.5 -55.5v-107q0 -33 -22.5 -56t-55.5 -23h-262q-33 0 -55.5 23.5t-22.5 55.5v148q0 43 4 75.5t14.5 64.5t27.5 65.5t46 76.5l18 27h-32q-33 0 -55.5 23.5 t-22.5 56.5v96l-287 -645q-8 -16 -30.5 -31.5t-43.5 -15.5h-120q-35 0 -58.5 21.5t-23.5 52.5zM111 78h120l721 1618h-121zM186 1552h45v-643h107v807h-96v-20q0 -39 -35 -39h-21v-105zM670 59h262v107h-156v41q0 25 2 44t10.5 42.5t23.5 51.5t40 67q80 119 80 227v98 q0 139 -131 140q-66 0 -98.5 -32t-32.5 -108v-141h106v143q0 29 25 29q23 0 22 -29v-86q0 -59 -16 -103t-57 -104q-25 -37 -41.5 -65.5t-24.5 -55t-11 -54t-3 -64.5v-148z" />
<glyph unicode="&#xbe;" horiz-adv-x="1060" d="M29 74q0 20 8 37l321 718q-18 -4 -37.5 -7t-41.5 -3q-104 0 -156.5 58.5t-52.5 158.5v160q0 33 22.5 55.5t54.5 22.5h13v90h-8q-33 0 -55.5 23.5t-22.5 56.5v143q0 119 48 168t157 49t157.5 -51t48.5 -168v-184q0 -39 -16 -76q10 -18 14 -39.5t4 -50.5v-117l273 611 q6 16 29.5 31.5t41.5 15.5h121q35 0 57.5 -21.5t22.5 -54.5q0 -18 -8 -35l-719 -1618q-10 -18 -30.5 -32.5t-43.5 -14.5h-120q-35 2 -58.5 21.5t-23.5 52.5zM111 78h120l721 1618h-121zM147 1036q0 -63 33 -100t99 -37q68 0 99.5 37t31.5 100v199q0 66 -50 84q47 29 48 82 v184q0 76 -31 108.5t-98 32.5q-66 0 -96.5 -31.5t-30.5 -107.5v-143h104v145q0 29 23 29q27 0 26 -29v-188q0 -31 -20 -31h-47v-100h41q27 0 26 -31v-203q0 -29 -26 -28q-23 0 -23 28v160h-109v-160zM516 215v100l168 574q6 23 28.5 40t47.5 17h98q33 0 55.5 -23.5 t22.5 -56.5v-483q16 -10 27.5 -27.5t11.5 -38.5v-102q0 -23 -11.5 -41t-27.5 -29v-86q0 -33 -22.5 -56t-55.5 -23h-98q-35 0 -57.5 23.5t-22.5 55.5v76h-86q-33 0 -55.5 23.5t-22.5 56.5zM594 215h166v-156h98v156h39v102h-39v549h-98l-166 -559v-92zM688 317 q18 61 31.5 106.5t23 77t13.5 54.5t8 41q0 -37 -2 -98.5t-2 -180.5h-72z" />
<glyph unicode="&#xbf;" horiz-adv-x="700" d="M18 342v176q0 131 29 219t88 160q27 31 42.5 52.5t22.5 43t9 47t2 66.5v223q0 35 27 62q-27 20 -27 59v246q0 35 22.5 57.5t55.5 22.5h170q33 0 55.5 -22.5t22.5 -57.5v-246q0 -39 -29 -59q12 -12 20.5 -28.5t8.5 -33.5v-219q0 -68 -6.5 -119t-19.5 -93t-35.5 -80 t-55.5 -77q-16 -16 -26.5 -29.5t-16.5 -25.5q23 16 49 16h174q33 0 55.5 -23.5t22.5 -55.5v-283q0 -184 -78 -271t-250 -87t-252 86t-80 274zM96 342q0 -147 61.5 -214t192.5 -67q129 0 189.5 68t60.5 211v283h-174v-287q0 -92 -76 -92t-76 94v180q0 57 3.5 96t12.5 68 t26.5 53.5t45.5 57.5q27 33 45.5 64.5t30 68.5t16.5 81t5 103v219h-170v-223q0 -51 -2 -83t-11.5 -58.5t-29 -53t-51.5 -65.5q-53 -61 -76 -135t-23 -193v-176zM289 1450h170v246h-170v-246z" />
<glyph unicode="&#xc0;" horiz-adv-x="772" d="M-6 2089q0 31 21.5 53.5t58.5 22.5h209q14 0 35.5 -11.5t29.5 -21.5l217 -317q16 -23 17 -50q0 -23 -13 -41l4 -18l199 -1630q0 -33 -21.5 -54.5t-56.5 -21.5h-182q-29 0 -52.5 20.5t-27.5 49.5l-20 180h-60l-22 -178q-4 -31 -26.5 -51.5t-51.5 -20.5h-178 q-35 0 -56.5 21.5t-21.5 54.5l211 1630q4 37 39 57l-230 273q-23 23 -22 53zM74 78h178q8 66 14 126t17 124h198l31 -250h182l-198 1618h-211zM74 2087l270 -318h158l-219 318h-209zM301 496q23 180 44.5 363t37.5 372q18 -188 37.5 -369.5t42.5 -365.5h-162z" />
<glyph unicode="&#xc1;" horiz-adv-x="772" d="M-4 88l211 1618q0 6 2 10q-18 20 -19 47q0 25 17 49l215 318q8 10 28.5 22.5t36.5 12.5h211q37 0 58.5 -22.5t21.5 -53.5q0 -27 -20 -53l-230 -269q39 -18 45 -61l199 -1618q0 -37 -18.5 -62.5t-59.5 -25.5h-182q-29 0 -52.5 20.5t-27.5 49.5l-20 180h-60l-22 -178 q-4 -31 -26.5 -51.5t-51.5 -20.5h-178q-39 0 -58.5 25.5t-19.5 62.5zM74 78h178q8 66 14 126t17 124h198l31 -250h182l-198 1618h-211zM270 1769h158l270 318h-211zM301 496q23 180 44.5 363t37.5 372q18 -188 37.5 -369.5t42.5 -365.5h-162z" />
<glyph unicode="&#xc2;" horiz-adv-x="772" d="M-4 88l209 1604h-111q-37 0 -58.5 21.5t-21.5 51.5q0 23 13 47l200 318q8 12 30 23.5t38 11.5h192q16 0 37 -12.5t31 -24.5l190 -318q12 -25 13 -45q0 -31 -22.5 -52t-57.5 -21h-103l197 -1604q0 -37 -18.5 -62.5t-59.5 -25.5h-182q-29 0 -52.5 20.5t-27.5 49.5l-20 180 h-60l-22 -178q-4 -31 -26.5 -51.5t-51.5 -20.5h-178q-39 0 -58.5 25.5t-19.5 62.5zM74 78h178q8 66 14 126t17 124h198l31 -250h182l-198 1618h-211zM94 1769h152l139 228l133 -228h160l-191 318h-192zM301 496q23 180 44.5 363t37.5 372q18 -188 37.5 -369.5t42.5 -365.5 h-162zM340 1776h82l-39 67z" />
<glyph unicode="&#xc3;" horiz-adv-x="772" d="M-4 76l211 1630q4 29 26.5 49.5t51.5 20.5h75l-14 6q-23 10 -45 16t-43 6q-14 0 -26.5 -9t-27 -20.5t-28.5 -20.5t-31 -9q-31 0 -54 22.5t-23 59.5v166q35 45 84 73.5t116 28.5q37 0 69 -9t61.5 -20.5t57 -20.5t58.5 -9q18 0 30.5 8t25 18.5t25.5 18.5t32 8 q29 0 53.5 -20.5t24.5 -57.5v-141q0 -23 -14.5 -43.5t-36 -36.5t-48 -28.5t-51.5 -16.5q14 -14 18 -39l199 -1630q0 -33 -21.5 -54.5t-56.5 -21.5h-182q-29 0 -52.5 20.5t-27.5 49.5l-20 180h-60l-22 -178q-4 -31 -26.5 -51.5t-51.5 -20.5h-178q-35 0 -56.5 21.5t-21.5 54.5 zM74 78h178q8 66 14 126t17 124h198l31 -250h182l-198 1618h-211zM145 1827h2q45 57 111 57q31 0 60.5 -10t59.5 -21.5t60.5 -21.5t65.5 -10q41 0 69.5 13t51.5 36v141h-2q-16 -25 -45 -40t-64 -15t-64.5 9t-58.5 21.5t-58.5 21.5t-64.5 9q-47 0 -75.5 -14t-47.5 -37v-139z M301 496q23 180 44.5 363t37.5 372q18 -188 37.5 -369.5t42.5 -365.5h-162z" />
<glyph unicode="&#xc4;" horiz-adv-x="772" d="M-4 76l211 1638h-53q-33 0 -56.5 22.5t-23.5 57.5v246q0 33 23.5 55.5t56.5 22.5h163q20 0 38 -11.5t28 -27.5q10 16 28.5 27.5t41.5 11.5h163q35 0 57.5 -22.5t22.5 -55.5v-246q0 -35 -22.5 -57.5t-57.5 -22.5h-45l201 -1638q0 -33 -21.5 -54.5t-56.5 -21.5h-182 q-29 0 -52.5 20.5t-27.5 49.5l-20 180h-60l-22 -178q-4 -31 -26.5 -51.5t-51.5 -20.5h-178q-35 0 -56.5 21.5t-21.5 54.5zM74 78h178q8 66 14 126t17 124h198l31 -250h182l-198 1618h-211zM154 1794h163v246h-163v-246zM301 496q23 180 44.5 363t37.5 372 q18 -188 37.5 -369.5t42.5 -365.5h-162zM453 1794h163v246h-163v-246z" />
<glyph unicode="&#xc5;" horiz-adv-x="772" d="M-4 88l211 1618q0 14 10 31q-53 29 -77.5 78t-24.5 114q0 104 66.5 170t201.5 66q139 0 206.5 -66t67.5 -170q0 -127 -96 -188q8 -14 12 -35l199 -1618q0 -37 -18.5 -62.5t-59.5 -25.5h-182q-29 0 -52.5 20.5t-27.5 49.5l-20 180h-60l-22 -178q-4 -31 -29 -51.5 t-49 -20.5h-178q-39 0 -58.5 25.5t-19.5 62.5zM74 78h178q8 66 14 126t17 124h198l31 -250h182l-198 1618h-211zM193 1929q0 -66 47 -109.5t143 -43.5q100 0 147.5 43.5t47.5 109.5q0 70 -47.5 114t-147.5 44q-96 0 -143 -44t-47 -114zM272 1929q0 86 111 86q59 0 84 -21.5 t25 -64.5q0 -41 -25 -62.5t-84 -21.5q-111 0 -111 84zM301 496q23 180 44.5 363t37.5 372q18 -188 37.5 -369.5t42.5 -365.5h-162z" />
<glyph unicode="&#xc6;" horiz-adv-x="1028" d="M-2 88l211 1618q4 29 26.5 49.5t51.5 20.5h641q33 0 56.5 -22.5t23.5 -57.5v-183q0 -33 -23.5 -55t-56.5 -22h-174v-363h92q33 0 55.5 -22.5t22.5 -55.5v-184q0 -33 -22.5 -55.5t-55.5 -22.5h-92v-395h182q33 0 55.5 -22.5t22.5 -55.5v-182q0 -33 -22.5 -55.5 t-55.5 -22.5h-447q-33 0 -55 22.5t-22 55.5v174h-56q-6 -45 -13 -93t-11 -89q-4 -29 -26.5 -49.5t-51.5 -20.5h-178q-39 0 -58.5 25.5t-19.5 62.5zM76 78h178l31 252h204v-252h447v182h-262v551h172v184h-172v518h254v183h-641zM305 496l123 1017h61v-1017h-184z" />
<glyph unicode="&#xc7;" horiz-adv-x="718" d="M35 334v1102q0 358 340 358q319 0 319 -354v-287q0 -35 -22.5 -57.5t-57.5 -22.5h-163q-25 0 -44.5 13.5t-29.5 33.5v-418q10 23 29.5 36.5t44.5 13.5h163q35 0 57.5 -23.5t22.5 -56.5v-334q0 -266 -170 -332v-139q0 -72 -39 -116t-125 -44h-34q-33 0 -55.5 22.5 t-22.5 55.5v65q-16 23 -17 48v104q-197 63 -196 332zM115 334q0 -272 260 -273q127 0 183 68t56 209v334h-163v-336q0 -94 -76 -94t-76 94v1104q0 92 76 92q41 0 58.5 -22.5t17.5 -69.5v-287h163v287q0 274 -239 274q-260 0 -260 -278v-1102zM311 39v-141h64v-33 q0 -25 -21 -25h-28v-55h34q45 0 65.5 22.5t20.5 59.5v172h-135z" />
<glyph unicode="&#xc8;" d="M-51 2089q0 31 21.5 53.5t58.5 22.5h209q14 0 35.5 -11.5t29.5 -21.5l217 -317q14 -25 17 -39h26q33 0 55.5 -22.5t22.5 -57.5v-183q0 -33 -22.5 -55t-55.5 -22h-178v-363h92q33 0 56.5 -22.5t23.5 -55.5v-184q0 -33 -23.5 -55.5t-56.5 -22.5h-92v-395h186 q33 0 56.5 -22.5t23.5 -55.5v-182q0 -33 -23.5 -55.5t-56.5 -22.5h-446q-33 0 -55.5 22.5t-22.5 55.5v1618q0 35 22.5 57.5t55.5 22.5h65l-219 260q-23 23 -22 53zM29 2087l270 -318h158l-219 318h-209zM125 78h446v182h-264v551h170v184h-170v518h256v183h-438v-1618z" />
<glyph unicode="&#xc9;" d="M47 78v1618q0 35 22.5 57.5t55.5 22.5h10q2 16 17 36l217 318q6 10 27.5 22.5t35.5 12.5h211q37 0 58.5 -22.5t21.5 -53.5q0 -27 -21 -53l-223 -260h84q33 0 55.5 -22.5t22.5 -57.5v-183q0 -33 -22.5 -55t-55.5 -22h-178v-363h92q33 0 56.5 -22.5t23.5 -55.5v-184 q0 -33 -23.5 -55.5t-56.5 -22.5h-92v-395h186q33 0 56.5 -22.5t23.5 -55.5v-182q0 -33 -23.5 -55.5t-56.5 -22.5h-446q-33 0 -55.5 22.5t-22.5 55.5zM125 78h446v182h-264v551h170v184h-170v518h256v183h-438v-1618zM217 1769h156l270 318h-211z" />
<glyph unicode="&#xca;" d="M-31 1765q0 23 13 47l200 318q8 12 29.5 23.5t38.5 11.5h192q16 0 37 -12.5t31 -24.5l190 -318q12 -25 13 -45q0 -29 -19.5 -50t-52.5 -23v-179q0 -33 -22.5 -55t-55.5 -22h-178v-363h92q33 0 56.5 -22.5t23.5 -55.5v-184q0 -33 -23.5 -55.5t-56.5 -22.5h-92v-395h186 q33 0 56.5 -22.5t23.5 -55.5v-182q0 -33 -23.5 -55.5t-56.5 -22.5h-446q-33 0 -55.5 22.5t-22.5 55.5v1614q-35 0 -56.5 21.5t-21.5 51.5zM49 1769h152l139 228l133 -228h160l-191 318h-192zM125 78h446v182h-264v551h170v184h-170v518h256v183h-438v-1618zM295 1776h82 l-39 67z" />
<glyph unicode="&#xcb;" d="M31 1794v246q0 33 23.5 55.5t56.5 22.5h161q23 0 40.5 -11.5t27.5 -27.5q10 16 28.5 27.5t41.5 11.5h163q33 0 56.5 -22.5t23.5 -55.5v-246q0 -33 -24 -57q4 -10 8 -20.5t4 -20.5v-183q0 -33 -22.5 -55t-55.5 -22h-178v-363h92q33 0 56.5 -22.5t23.5 -55.5v-184 q0 -33 -23.5 -55.5t-56.5 -22.5h-92v-395h186q33 0 56.5 -22.5t23.5 -55.5v-182q0 -33 -23.5 -55.5t-56.5 -22.5h-446q-33 0 -55.5 22.5t-22.5 55.5v1618q0 18 10 39q-27 23 -26 59zM111 1794h161v246h-161v-246zM125 78h446v182h-264v551h170v184h-170v518h256v183h-438 v-1618zM410 1794h163v246h-163v-246z" />
<glyph unicode="&#xcc;" horiz-adv-x="440" d="M-172 2089q0 31 22.5 53.5t59.5 22.5h209q12 0 33.5 -11.5t29.5 -21.5l219 -317q16 -23 17 -50q0 -35 -31 -59q0 -4 1 -5t1 -5v-1618q0 -33 -22.5 -55.5t-55.5 -22.5h-182q-33 0 -55.5 22.5t-22.5 55.5v1618q0 39 31 63l-232 277q-23 23 -22 53zM-90 2087l268 -318h158 l-217 318h-209zM129 78h182v1618h-182v-1618z" />
<glyph unicode="&#xcd;" horiz-adv-x="440" d="M25 1763q0 23 16 49l217 318q8 10 28.5 22.5t35.5 12.5h210q37 0 59.5 -22.5t22.5 -53.5q0 -27 -22 -53l-234 -277q12 -10 21.5 -26.5t9.5 -36.5v-1618q0 -33 -22.5 -55.5t-55.5 -22.5h-182q-33 0 -55.5 22.5t-22.5 55.5v1618q0 8 2 12q-29 23 -28 55zM106 1769h158 l268 318h-210zM129 78h182v1618h-182v-1618z" />
<glyph unicode="&#xce;" horiz-adv-x="440" d="M-152 1765q0 25 15 47l200 318q8 12 30 23.5t36 11.5h193q16 0 36.5 -12.5t30.5 -24.5l191 -318q12 -25 12 -45q0 -31 -21.5 -52t-56.5 -21h-125v-1614q0 -33 -22.5 -55.5t-55.5 -22.5h-182q-33 0 -55.5 22.5t-22.5 55.5v1614h-123q-37 0 -58.5 21.5t-21.5 51.5z M-72 1769h152l141 228l133 -228h160l-192 318h-193zM129 78h182v1618h-182v-1618zM174 1776h84l-39 67z" />
<glyph unicode="&#xcf;" horiz-adv-x="440" d="M-90 1794v246q0 33 22.5 55.5t55.5 22.5h164q20 0 38.5 -11.5t28.5 -27.5q20 39 68 39h166q33 0 55 -22.5t22 -55.5v-246q0 -35 -22.5 -57.5t-54.5 -22.5h-66q0 -4 1 -9t1 -9v-1618q0 -33 -22.5 -55.5t-55.5 -22.5h-182q-33 0 -55.5 22.5t-22.5 55.5v1618q0 4 1 9t1 9 h-65q-33 0 -55.5 22.5t-22.5 57.5zM-12 1794h164v246h-164v-246zM129 78h182v1618h-182v-1618zM287 1794h166v246h-166v-246z" />
<glyph unicode="&#xd0;" horiz-adv-x="751" d="M-6 811v184q0 23 14.5 43.5t34.5 28.5v629q0 35 22.5 57.5t57.5 22.5h256q172 0 255 -94.5t83 -262.5v-1065q0 -354 -338 -354h-256q-35 0 -57.5 22.5t-22.5 55.5v661q-20 10 -34.5 28.5t-14.5 43.5zM74 811h49v-733h256q260 0 260 276v1065q0 131 -64.5 204t-195.5 73 h-256v-701h-49v-184zM305 260v551h88v184h-88v518h74q41 0 60.5 -25.5t19.5 -66.5v-1067q0 -94 -80 -94h-74z" />
<glyph unicode="&#xd1;" horiz-adv-x="808" d="M41 78v1618q0 29 17.5 50t43.5 28q-18 20 -18 53v166q35 45 85 73.5t116 28.5q37 0 69.5 -9t61 -20.5t57.5 -20.5t57 -9q18 0 31.5 8t26 18.5t26 18.5t31.5 8q29 0 52.5 -20.5t23.5 -57.5v-141q0 -31 -25.5 -56.5t-48.5 -37.5h39q33 0 55.5 -22.5t22.5 -57.5v-1618 q0 -33 -22.5 -55.5t-55.5 -22.5h-176q-27 0 -49.5 18.5t-28.5 44.5l-78 361v-346q0 -33 -22.5 -55.5t-57.5 -22.5h-153q-35 0 -57.5 22.5t-22.5 55.5zM121 78h153v420v266v199.5t-4 199.5q20 -98 43 -201.5t51.5 -230.5t64.5 -285.5t81 -367.5h176v1618h-156v-549v-219v-164 t5 -166q-18 94 -37 193.5t-42.5 225.5t-54 289.5t-69.5 389.5h-211v-1618zM164 1827h2q23 29 48.5 43t59.5 14q33 0 63 -10t58.5 -21.5t59 -21.5t65.5 -10q41 0 71 13t52 36v141h-2q-18 -25 -47 -40t-64 -15t-63.5 9t-57 21.5t-59.5 21.5t-65 9q-47 0 -76 -14t-45 -37v-139z M223 1776h109q29 0 51.5 -19.5t26.5 -46.5l43 -246v232q0 27 14 49q-57 10 -103.5 34.5t-89.5 24.5q-23 0 -51 -28z" />
<glyph unicode="&#xd2;" horiz-adv-x="745" d="M-20 2089q0 31 22.5 53.5t58.5 22.5h209q12 0 34 -11.5t30 -21.5l219 -317q14 -23 14 -50q0 -12 -2 -16q145 -78 146 -309v-1104q0 -174 -83 -264t-257 -90q-170 0 -253 90t-83 264v1104q0 264 190 332l-223 264q-23 23 -22 53zM61 2087l269 -318h157l-217 318h-209z M115 336q0 -274 256 -275q260 0 260 275v1104q0 274 -260 274q-256 0 -256 -274v-1104zM295 336v1104q0 92 76 92q80 0 80 -92v-1104q0 -94 -80 -94q-76 0 -76 94z" />
<glyph unicode="&#xd3;" horiz-adv-x="745" d="M35 336v1104q0 229 143 309q-2 4 -2 14q0 23 17 49l217 318q6 10 27.5 22.5t35.5 12.5h211q37 0 58.5 -22.5t21.5 -53.5t-21 -53l-225 -264q193 -68 193 -332v-1104q0 -174 -83 -264t-257 -90q-170 0 -253 90t-83 264zM115 336q0 -274 256 -275q260 0 260 275v1104 q0 274 -260 274q-256 0 -256 -274v-1104zM258 1769h158l268 318h-211zM295 336v1104q0 92 76 92q80 0 80 -92v-1104q0 -94 -80 -94q-76 0 -76 94z" />
<glyph unicode="&#xd4;" horiz-adv-x="745" d="M0 1765q0 25 14 47l201 318q6 12 28.5 23.5t37.5 11.5h192q16 0 36.5 -12.5t31.5 -24.5l190 -318q12 -25 12 -45q0 -31 -21.5 -52t-57.5 -21h-29q76 -92 76 -252v-1104q0 -174 -83 -264t-257 -90q-170 0 -253 90t-83 264v1104q0 162 74 252h-29q-37 0 -58.5 21.5 t-21.5 51.5zM80 1769h151l140 228l135 -228h158l-191 318h-192zM115 336q0 -274 256 -275q260 0 260 275v1104q0 274 -260 274q-256 0 -256 -274v-1104zM295 336v1104q0 92 76 92q80 0 80 -92v-1104q0 -94 -80 -94q-76 0 -76 94zM338 1792q8 2 16.5 2h16.5t15 -1t13 -1 l-30 51z" />
<glyph unicode="&#xd5;" horiz-adv-x="745" d="M35 336v1104q0 317 276 350q-18 4 -34.5 9t-32.5 5q-12 0 -25.5 -9t-27 -20.5t-29 -20.5t-31.5 -9q-31 0 -54.5 22.5t-23.5 59.5v166q35 45 85 73.5t116 28.5q37 0 68.5 -9t61.5 -20.5t57.5 -20.5t58.5 -9q18 0 31.5 8t25.5 18.5t25.5 18.5t31.5 8q29 0 52.5 -20.5 t23.5 -57.5v-141q0 -20 -12 -40t-30.5 -35t-41 -26.5t-43.5 -17.5q147 -84 148 -311v-1104q0 -174 -83 -264t-257 -90q-170 0 -253 90t-83 264zM115 336q0 -274 256 -275q260 0 260 275v1104q0 274 -260 274q-256 0 -256 -274v-1104zM131 1827h2q23 29 49.5 43t61.5 14 q31 0 60.5 -10t59 -21.5t60.5 -21.5t65 -10q41 0 71 13t52 36v141h-2q-18 -25 -46.5 -40t-63.5 -15t-63.5 9t-57.5 21.5t-59.5 21.5t-65.5 9q-47 0 -75.5 -14t-47.5 -37v-139zM295 336v1104q0 92 76 92q80 0 80 -92v-1104q0 -94 -80 -94q-76 0 -76 94z" />
<glyph unicode="&#xd6;" horiz-adv-x="745" d="M35 336v1104q0 184 94 274q-29 4 -48.5 25.5t-19.5 54.5v246q0 33 22.5 55.5t55.5 22.5h164q45 0 66 -39q10 16 28.5 27.5t40.5 11.5h166q33 0 55.5 -22.5t22.5 -55.5v-246q0 -31 -19.5 -53.5t-48.5 -26.5q96 -90 97 -274v-1104q0 -174 -83 -264t-257 -90q-170 0 -253 90 t-83 264zM115 336q0 -274 256 -275q260 0 260 275v1104q0 274 -260 274q-256 0 -256 -274v-1104zM139 1794h164v246h-164v-246zM295 336v1104q0 92 76 92q80 0 80 -92v-1104q0 -94 -80 -94q-76 0 -76 94zM438 1794h166v246h-166v-246z" />
<glyph unicode="&#xd7;" horiz-adv-x="1026" d="M113 676q0 29 22 55l174 172l-174 170q-23 27 -22 55q0 29 22 56l96 96q23 23 56 23t55 -23l172 -172l172 174q23 23 55 23q33 0 56 -23l96 -96q23 -23 22 -56q0 -33 -22 -55l-174 -172l174 -174q23 -23 22 -55q0 -33 -22 -56l-96 -96q-27 -23 -56 -22q-29 0 -55 22 l-172 174l-172 -172q-27 -23 -55 -22q-29 0 -56 22l-96 97q-23 27 -22 55zM190 676l97 -96l227 227l227 -229l97 96l-228 229l228 227l-97 97l-227 -228l-227 226l-97 -97l228 -225z" />
<glyph unicode="&#xd8;" horiz-adv-x="745" d="M33 -109q0 12 2 19l49 215q-23 41 -36 96t-13 115v1104q0 174 83 264t253 90q23 0 40 -1t38 -5l24 108q6 27 28.5 45.5t49.5 18.5h80q35 0 57.5 -21.5t22.5 -54.5q0 -4 -1 -9t-1 -9l-50 -217q51 -86 52 -209v-1104q0 -174 -83 -264t-257 -90q-23 0 -40.5 1t-37.5 5 l-25 -111q-6 -25 -29.5 -43t-48.5 -18h-77q-35 0 -57.5 21.5t-22.5 53.5zM113 -106h77l43 194q63 -27 138 -27q260 0 260 275v1104q0 125 -56 192l56 250h-80l-43 -194q-31 12 -64.5 19t-72.5 7q-256 0 -256 -274v-1104q0 -125 53 -193zM295 336v29l156 700v-729 q0 -94 -80 -94q-76 0 -76 94zM295 723v717q0 92 76 92q80 0 80 -92v-13z" />
<glyph unicode="&#xd9;" horiz-adv-x="755" d="M-14 2089q0 31 22.5 53.5t59.5 22.5h206q14 0 36 -11.5t30 -21.5l219 -317q4 -10 8 -19.5t6 -19.5h62q33 0 55.5 -22.5t22.5 -57.5v-1360q0 -354 -336 -354t-336 354v1360q0 35 22.5 57.5t57.5 22.5h106l-219 260q-23 23 -22 53zM68 2087l268 -318h158l-220 318h-206z M121 336q0 -274 256 -275q258 0 258 275v1360h-180v-1360q0 -94 -78 -94q-76 0 -76 94v1360h-180v-1360z" />
<glyph unicode="&#xda;" horiz-adv-x="755" d="M41 336v1360q0 35 22.5 57.5t57.5 22.5h59q2 16 17 36l217 318q6 10 27.5 22.5t35.5 12.5h211q37 0 58.5 -22.5t21.5 -53.5t-20 -53l-224 -260h111q33 0 55.5 -22.5t22.5 -57.5v-1360q0 -354 -336 -354t-336 354zM121 336q0 -274 256 -275q258 0 258 275v1360h-180v-1360 q0 -94 -78 -94q-76 0 -76 94v1360h-180v-1360zM262 1769h156l270 318h-211z" />
<glyph unicode="&#xdb;" horiz-adv-x="755" d="M6 1765q0 25 14 47l201 318q6 12 28.5 23.5t37.5 11.5h192q16 0 37 -12.5t31 -24.5l190 -318q12 -25 13 -45q0 -43 -37 -65v-1364q0 -354 -336 -354t-336 354v1366q-35 23 -35 63zM86 1769h152l139 228l135 -228h158l-191 318h-192zM121 336q0 -274 256 -275 q258 0 258 275v1360h-180v-1360q0 -94 -78 -94q-76 0 -76 94v1360h-180v-1360zM328 1769q37 -16 49 -55q4 18 15 31.5t28 21.5l-45 76z" />
<glyph unicode="&#xdc;" horiz-adv-x="755" d="M41 336v1360q0 20 9 36.5t24 26.5q-6 14 -6 35v246q0 33 22.5 55.5t54.5 22.5h164q45 0 66 -39q10 16 28.5 27.5t40.5 11.5h166q33 0 55.5 -22.5t22.5 -55.5v-246q0 -20 -8 -35q33 -23 33 -63v-1360q0 -354 -336 -354t-336 354zM121 336q0 -274 256 -275q258 0 258 275 v1360h-180v-1360q0 -94 -78 -94q-76 0 -76 94v1360h-180v-1360zM145 1794h164v246h-164v-246zM444 1794h166v246h-166v-246z" />
<glyph unicode="&#xdd;" horiz-adv-x="765" d="M-8 1688.5v9.5q0 35 22.5 56.5t57.5 21.5h116q2 16 17 36l215 318q8 10 29.5 22.5t35.5 12.5h211q37 0 58.5 -22.5t21.5 -53.5q0 -27 -20 -53l-224 -260h164q35 0 56.5 -21.5t21.5 -56.5v-9.5t-2 -11.5l-221 -903v-696q0 -33 -22.5 -55.5t-57.5 -22.5h-184 q-33 0 -55.5 22.5t-22.5 55.5v700l-215 901q-2 4 -2 9.5zM72 1696l215 -910v-708h184v708l225 910h-178q-18 -98 -38.5 -200.5t-40 -190.5t-34 -155t-18.5 -93q-4 29 -17.5 94.5t-32 153.5t-37.5 189l-38 202h-190zM270 1769h156l270 318h-211zM340 1692l49 -248l49 248h-98 z" />
<glyph unicode="&#xde;" horiz-adv-x="757" d="M47 78v1618q0 35 22.5 57.5t55.5 22.5h182q33 0 55.5 -22.5t22.5 -57.5v-207h2q184 0 274.5 -90t90.5 -281v-497q0 -180 -90.5 -274.5t-272.5 -94.5h-4v-174q0 -33 -22.5 -55.5t-55.5 -22.5h-182q-33 0 -55.5 22.5t-22.5 55.5zM125 78h182v252h82q141 0 212 74.5 t71 216.5v497q0 150 -71 220.5t-214 70.5h-80v287h-182v-1618zM307 512v715h80q102 0 102 -109v-497q0 -109 -100 -109h-82z" />
<glyph unicode="&#xdf;" horiz-adv-x="759" d="M47 78v1395q0 158 74 239.5t233 81.5q152 0 228.5 -82t76.5 -239v-404q0 -53 -16 -92q35 -35 60.5 -91.5t25.5 -131.5v-443q0 -170 -67.5 -249.5t-231.5 -79.5q-39 0 -60.5 3t-39.5 11q-4 2 -8.5 4t-8.5 6q-12 -6 -28 -6h-160q-33 0 -55.5 22.5t-22.5 55.5zM125 78h160 v1388q0 37 16 59.5t53 22.5q35 0 50.5 -22.5t15.5 -59.5v-397q0 -41 -14.5 -55.5t-38.5 -14.5h-29v-157h80q35 0 53 -18.5t18 -63.5v-449q0 -47 -16 -66.5t-55 -19.5q-35 0 -53 6l-3 -161q16 -8 68 -9q121 0 171 60.5t50 189.5v443q0 88 -35.5 135t-89.5 63q16 10 35 40 t19 77v404q0 242 -226 241q-119 0 -174 -61.5t-55 -179.5v-1395zM365 311q18 0 32.5 6.5t14.5 32.5v410l2 2h-49v-451z" />
<glyph unicode="&#xe0;" horiz-adv-x="669" d="M-57 1690q0 29 22.5 51t59.5 22h206q14 0 36 -11t30 -21l219 -318q14 -25 14 -47q0 -14 -6 -29q100 -80 101 -262v-893q0 -43 5 -66.5t5 -39.5q0 -33 -21.5 -54.5t-56.5 -21.5h-149q-14 0 -35 10q-45 -29 -109 -28q-121 0 -183.5 64.5t-62.5 207.5v178q0 117 30 188.5 t81 118.5h-14q-33 0 -56.5 22.5t-23.5 55.5v258q0 231 153 295l-223 264q-23 23 -22 56zM25 1686l268 -318h158l-220 318h-206zM96 254q0 -102 43 -147.5t125 -45.5q47 0 80 21.5t55 62.5q0 -45 9 -67h149q-10 37 -10 104v893q0 240 -219 240q-213 0 -213 -240v-258h143v256 q0 37 12.5 57.5t53.5 20.5q66 0 65 -78v-274q-61 -29 -114.5 -56.5t-93.5 -67.5t-62.5 -98.5t-22.5 -144.5v-178zM258 295v125q0 49 2 87t14.5 66.5t39 51t75.5 41.5v-394q-18 -51 -65 -51q-66 0 -66 74z" />
<glyph unicode="&#xe1;" horiz-adv-x="669" d="M18 254v178q0 117 30 188.5t81 118.5h-14q-33 0 -56.5 22.5t-23.5 55.5v258q0 190 106 268q-2 6 -2 19q0 27 17 49l215 318q8 12 29.5 23t35.5 11h211q37 0 58.5 -22.5t21.5 -50.5q0 -29 -20 -56l-230 -268q147 -68 148 -291v-893q0 -43 5 -66.5t5 -39.5 q0 -33 -21.5 -54.5t-56.5 -21.5h-149q-14 0 -35 10q-45 -29 -109 -28q-121 0 -183.5 64.5t-62.5 207.5zM96 254q0 -102 43 -147.5t125 -45.5q47 0 80 21.5t55 62.5q0 -45 9 -67h149q-10 37 -10 104v893q0 240 -219 240q-213 0 -213 -240v-258h143v256q0 37 12.5 57.5 t53.5 20.5q66 0 65 -78v-274q-61 -29 -114.5 -56.5t-93.5 -67.5t-62.5 -98.5t-22.5 -144.5v-178zM221 1368h156l270 318h-211zM258 295v125q0 49 2 87t14.5 66.5t39 51t75.5 41.5v-394q-18 -51 -65 -51q-66 0 -66 74z" />
<glyph unicode="&#xe2;" horiz-adv-x="669" d="M-37 1364q0 25 12 47l201 318q8 12 29.5 23t38.5 11h192q16 0 37 -11t31 -26l190 -317q12 -23 13 -45q0 -31 -22.5 -52.5t-57.5 -21.5h-58q55 -76 56 -215v-893q0 -43 5 -66.5t5 -39.5q0 -33 -21.5 -54.5t-56.5 -21.5h-149q-14 0 -35 10q-45 -29 -109 -28 q-121 0 -183.5 64.5t-62.5 207.5v178q0 117 30 188.5t81 118.5h-14q-33 0 -56.5 22.5t-23.5 55.5v258q0 133 53 215h-45q-37 0 -58.5 21.5t-21.5 52.5zM43 1368h152l139 229l133 -229h160l-191 318h-192zM96 254q0 -102 43 -147.5t125 -45.5q47 0 80 21.5t55 62.5 q0 -45 9 -67h149q-10 37 -10 104v893q0 240 -219 240q-213 0 -213 -240v-258h143v256q0 37 12.5 57.5t53.5 20.5q66 0 65 -78v-274q-61 -29 -114.5 -56.5t-93.5 -67.5t-62.5 -98.5t-22.5 -144.5v-178zM258 295v125q0 49 2 87t14.5 66.5t39 51t75.5 41.5v-394 q-18 -51 -65 -51q-66 0 -66 74zM301 1393q8 0 14.5 1t12.5 1h17t17 -2l-30 51z" />
<glyph unicode="&#xe3;" horiz-adv-x="669" d="M18 254v178q0 117 30 188.5t81 118.5h-14q-33 0 -56.5 22.5t-23.5 55.5v258q0 285 235 316q-35 12 -61 12q-14 0 -26.5 -9.5t-27 -19.5t-28.5 -19t-31 -9q-31 0 -54.5 21.5t-23.5 57.5v168q35 43 84.5 73t116.5 30q37 0 68.5 -9.5t61.5 -21.5t57.5 -21.5t58.5 -9.5 q18 0 30.5 8.5t24.5 19.5t25.5 19.5t32.5 8.5q29 0 53 -21.5t24 -58.5v-142q0 -23 -13 -42t-33.5 -35.5t-46 -27.5t-48.5 -15q111 -78 111 -273v-893q0 -43 5 -66.5t5 -39.5q0 -33 -21.5 -54.5t-56.5 -21.5h-149q-14 0 -35 10q-45 -29 -109 -28q-121 0 -183.5 64.5 t-62.5 207.5zM96 254q0 -102 43 -147.5t125 -45.5q47 0 80 21.5t55 62.5q0 -45 9 -67h149q-10 37 -10 104v893q0 240 -219 240q-213 0 -213 -240v-258h143v256q0 37 12.5 57.5t53.5 20.5q66 0 65 -78v-274q-61 -29 -114.5 -56.5t-93.5 -67.5t-62.5 -98.5t-22.5 -144.5v-178z M96 1425h2q45 57 111 58q31 0 60.5 -10.5t59 -21.5t60.5 -21.5t66 -10.5q41 0 69.5 13.5t50.5 35.5v142h-2q-16 -25 -44.5 -40.5t-63.5 -15.5t-64.5 9.5t-58.5 21.5t-58.5 21.5t-64.5 9.5q-47 0 -75.5 -14.5t-47.5 -36.5v-140zM258 295v125q0 49 2 87t14.5 66.5t39 51 t75.5 41.5v-394q-18 -51 -65 -51q-66 0 -66 74z" />
<glyph unicode="&#xe4;" horiz-adv-x="669" d="M18 254v178q0 117 30 188.5t81 118.5h-14q-33 0 -56.5 22.5t-23.5 55.5v258q0 156 71 238h-2q-33 0 -56 23.5t-23 56.5v245q0 33 23.5 55.5t55.5 22.5h164q20 0 38 -11t28 -28q10 16 28.5 27.5t40.5 11.5h164q35 0 57.5 -22.5t22.5 -55.5v-245q0 -33 -22.5 -56.5 t-57.5 -23.5h-14q72 -78 72 -238v-893q0 -41 5 -64.5t5 -41.5q0 -31 -21.5 -53.5t-56.5 -22.5h-149q-14 0 -35 10q-45 -29 -109 -28q-121 0 -183.5 64.5t-62.5 207.5zM96 254q0 -102 43 -147.5t125 -45.5q47 0 80 21.5t55 62.5q0 -45 9 -67h149q-10 37 -10 104v893 q0 240 -219 240q-213 0 -213 -240v-258h143v256q0 37 12.5 57.5t53.5 20.5q66 0 65 -78v-274q-61 -29 -114.5 -56.5t-93.5 -67.5t-62.5 -98.5t-22.5 -144.5v-178zM104 1393h164v245h-164v-245zM258 295v125q0 49 2 87t14.5 66.5t39 51t75.5 41.5v-394q-18 -51 -65 -51 q-66 0 -66 74zM403 1393h164v245h-164v-245z" />
<glyph unicode="&#xe5;" horiz-adv-x="669" d="M18 254v178q0 117 30 188.5t81 118.5h-14q-33 0 -56.5 22.5t-23.5 55.5v258q0 195 112 273q-84 59 -84 180q0 104 67 169.5t202 65.5q139 0 206.5 -65.5t67.5 -169.5q0 -59 -22.5 -106.5t-67.5 -78.5q109 -76 109 -268v-893q0 -43 5 -66.5t5 -39.5q0 -33 -21.5 -54.5 t-56.5 -21.5h-149q-14 0 -35 10q-45 -29 -109 -28q-121 0 -183.5 64.5t-62.5 207.5zM96 254q0 -102 43 -147.5t125 -45.5q47 0 80 21.5t55 62.5q0 -45 9 -67h149q-10 37 -10 104v893q0 240 -219 240q-213 0 -213 -240v-258h143v256q0 37 12.5 57.5t53.5 20.5q66 0 65 -78 v-274q-61 -29 -114.5 -56.5t-93.5 -67.5t-62.5 -98.5t-22.5 -144.5v-178zM141 1528q0 -66 47.5 -110t143.5 -44q100 0 147 44t47 110q0 70 -47 114t-147 44q-96 0 -143.5 -44.5t-47.5 -113.5zM221 1528q0 86 111 86q59 0 83.5 -21.5t24.5 -64.5q0 -41 -24.5 -61.5 t-83.5 -20.5q-111 0 -111 82zM258 295v125q0 49 2 87t14.5 66.5t39 51t75.5 41.5v-394q-18 -51 -65 -51q-66 0 -66 74z" />
<glyph unicode="&#xe6;" horiz-adv-x="944" d="M18 254v178q0 117 30 188.5t81 118.5h-14q-33 0 -56.5 22.5t-23.5 55.5v258q0 319 293 320q43 0 77.5 -7.5t65.5 -23.5q61 31 139 31q299 0 299 -330v-401q0 -25 -14 -46q14 -23 14 -45v-266q0 -326 -299 -325q-53 0 -96 12t-74 35q-29 -23 -69.5 -35t-98.5 -12 q-117 0 -185.5 64.5t-68.5 207.5zM96 254q0 -102 48.5 -147.5t127.5 -45.5q72 0 109 25t59 66q29 -47 66 -69t104 -22q219 0 219 246v266h-153v-266q0 -80 -66 -80q-63 0 -63 74v363h282v401q0 250 -219 250q-88 0 -139 -45q-47 45 -143 45q-213 0 -213 -240v-258h143v258 q0 76 66 76t65 -76v-276q-61 -29 -114.5 -56.5t-93.5 -67.5t-62.5 -98.5t-22.5 -144.5v-178zM258 319v101q0 49 2 87t14.5 66.5t39 51t75.5 41.5v-394q-18 -51 -65 -51q-41 0 -53.5 25.5t-12.5 72.5zM547 782v283q0 80 63 80q66 0 66 -80v-283h-129z" />
<glyph unicode="&#xe7;" horiz-adv-x="667" d="M35 309v754q0 147 73.5 239.5t231.5 92.5q156 0 225.5 -91.5t69.5 -238.5v-262q0 -33 -22.5 -56.5t-55.5 -23.5h-149q-33 0 -56 22v-114q25 25 56 24h153q33 0 55.5 -23.5t22.5 -56.5v-270q0 -104 -37 -180t-113 -113v-145q0 -72 -38.5 -116t-126.5 -44h-33 q-33 0 -55.5 22.5t-22.5 55.5v65q-16 23 -16 48v112q-84 35 -123 113t-39 186zM115 309q0 -113 54 -180.5t171 -67.5q115 0 168 67t53 177v270h-153v-266q0 -82 -68 -82t-68 82v758q0 80 68 80t68 -78v-266h149v262q0 113 -51 181.5t-166 68.5q-117 0 -171 -69.5t-54 -182.5 v-754zM274 39v-141h66v-33q0 -25 -21 -25h-28v-55h33q47 0 67.5 22.5t20.5 59.5v172h-138z" />
<glyph unicode="&#xe8;" d="M-61 1690q0 29 22.5 51t58.5 22h207q14 0 36 -11t30 -21l219 -318q14 -20 14 -49q0 -8 -1 -13t-3 -12q104 -80 105 -274v-401q0 -12 -4.5 -23.5t-8.5 -22.5q4 -10 8.5 -21t4.5 -24v-266q0 -326 -299 -325q-293 0 -293 325v758q0 236 151 303l-225 266q-23 23 -22 56z M20 1686l269 -318h157l-219 318h-207zM115 307q0 -246 213 -246q221 0 221 246v266h-154v-264q0 -82 -67 -82q-61 0 -62 80v357h283v401q0 250 -221 250q-213 0 -213 -250v-758zM266 782v283q0 80 62 80q68 0 67 -80v-283h-129z" />
<glyph unicode="&#xe9;" d="M35 307v758q0 197 104 276q-2 6 -3 10.5t-1 10.5q0 27 17 49l217 318q6 12 27.5 23t35.5 11h211q37 0 58.5 -22.5t21.5 -50.5q0 -29 -21 -56l-229 -268q154 -66 154 -301v-401q0 -12 -4.5 -23.5t-8.5 -22.5q4 -10 8.5 -21t4.5 -24v-266q0 -326 -299 -325q-293 0 -293 325 zM115 307q0 -246 213 -246q221 0 221 246v266h-154v-264q0 -82 -67 -82q-61 0 -62 80v357h283v401q0 250 -221 250q-213 0 -213 -250v-758zM217 1368h156l270 318h-211zM266 782v283q0 80 62 80q68 0 67 -80v-283h-129z" />
<glyph unicode="&#xea;" d="M-41 1364q0 27 14 47l199 318q8 12 30.5 23t37.5 11h192q16 0 36.5 -11t31.5 -26l190 -317q12 -23 12 -45q0 -31 -22.5 -52.5t-56.5 -21.5h-54q57 -82 58 -225v-401q0 -12 -4.5 -23.5t-8.5 -22.5q4 -10 8.5 -21t4.5 -24v-266q0 -326 -299 -325q-293 0 -293 325v758 q0 72 14 128t41 97h-51q-37 0 -58.5 21.5t-21.5 52.5zM39 1368h151l140 229l135 -229h158l-191 318h-192zM115 307q0 -246 213 -246q221 0 221 246v266h-154v-264q0 -82 -67 -82q-61 0 -62 80v357h283v401q0 250 -221 250q-213 0 -213 -250v-758zM266 782v283q0 80 62 80 q68 0 67 -80v-283h-129zM297 1393q11 2 31 2t30 -2l-30 51z" />
<glyph unicode="&#xeb;" d="M23 1393v245q0 33 22.5 55.5t54.5 22.5h164q45 0 66 -39q10 16 28.5 27.5t40.5 11.5h166q33 0 55.5 -22.5t22.5 -55.5v-245q0 -33 -22.5 -56.5t-55.5 -23.5h-12q74 -84 74 -248v-401q0 -12 -4.5 -23.5t-8.5 -22.5q4 -10 8.5 -21t4.5 -24v-266q0 -326 -299 -325 q-293 0 -293 325v758q0 164 74 248h-9q-33 0 -55 23.5t-22 56.5zM100 1393h164v245h-164v-245zM115 307q0 -246 213 -246q221 0 221 246v266h-154v-264q0 -82 -67 -82q-61 0 -62 80v357h283v401q0 250 -221 250q-213 0 -213 -250v-758zM266 782v283q0 80 62 80q68 0 67 -80 v-283h-129zM399 1393h166v245h-166v-245z" />
<glyph unicode="&#xec;" horiz-adv-x="444" d="M-158 1690q0 29 22.5 51t59.5 22h207q14 0 35.5 -11t30.5 -21l219 -318q14 -20 14 -49q0 -18 -9 -34.5t-26 -26.5v-1225q0 -33 -22.5 -55.5t-55.5 -22.5h-163q-33 0 -56.5 22.5t-23.5 55.5v1218q0 35 26 58l-235 280q-23 23 -23 56zM-76 1686l269 -318h157l-219 318h-207 zM154 78h163v1218h-163v-1218z" />
<glyph unicode="&#xed;" horiz-adv-x="475" d="M16 1362q0 25 15 49l217 318q8 12 28.5 23t36.5 11h209q37 0 59.5 -22.5t22.5 -50.5q0 -29 -22 -56l-238 -280q27 -18 27 -58v-1218q0 -33 -22.5 -55.5t-55.5 -22.5h-164q-33 0 -55.5 22.5t-22.5 55.5v1225q-35 18 -35 59zM96 1368h158l268 318h-209zM129 78h164v1218 h-164v-1218z" />
<glyph unicode="&#xee;" horiz-adv-x="583" d="M-80 1364q0 25 12 47l201 318q8 12 29.5 23t38.5 11h192q16 0 37 -11t31 -26l190 -317q12 -23 13 -45q0 -31 -23 -52.5t-57 -21.5h-131v-1212q0 -33 -22.5 -55.5t-57.5 -22.5h-162q-33 0 -56.5 22.5t-23.5 55.5v1212h-131q-37 0 -58.5 21.5t-21.5 52.5zM0 1368h152 l139 229l133 -229h160l-191 318h-192zM211 78h162v1218h-162v-1218zM246 1374h82l-39 70z" />
<glyph unicode="&#xef;" horiz-adv-x="483" d="M-72 1393v245q0 33 23.5 55.5t56.5 22.5h164q20 0 37.5 -11t28.5 -28q10 16 28.5 27.5t40.5 11.5h164q35 0 57.5 -22.5t22.5 -55.5v-245q0 -33 -22.5 -56.5t-57.5 -23.5h-72q0 -4 1 -8.5t1 -8.5v-1218q0 -33 -22.5 -55.5t-56.5 -22.5h-162q-33 0 -56.5 22.5t-23.5 55.5 v1218q0 10 2 17h-74q-33 0 -56.5 23.5t-23.5 56.5zM8 1393h164v245h-164v-245zM160 78h162v1218h-162v-1218zM307 1393h164v245h-164v-245z" />
<glyph unicode="&#xf0;" horiz-adv-x="745" d="M35 342v518q0 117 37 187.5t106 103.5l-33 29q-25 18 -24 57q0 12 3 26.5t13 24.5l133 162q-37 0 -66.5 20.5t-29.5 61.5v182q0 33 23.5 56.5t56.5 23.5q76 0 137.5 -15.5t110.5 -43.5l35 43q25 29 61 28q29 0 53 -18l62 -53q25 -25 24 -60q0 -31 -18 -51l-62 -76 q53 -139 54 -344v-862q0 -174 -84 -267t-256 -93q-170 0 -253 93t-83 267zM115 342q0 -135 63.5 -208t192.5 -73q131 0 195.5 73t64.5 208v862q0 111 -14.5 200t-51.5 155l94 116l-61 54l-84 -103q-88 88 -260 88v-182q47 -4 83 -14.5t60 -32.5l-198 -246l61 -53l182 223 q23 -72 23 -182v-189q-23 29 -54.5 46.5t-78.5 17.5q-100 0 -158.5 -55.5t-58.5 -186.5v-518zM295 348v481q0 92 80 93q41 0 54 -21.5t20 -50.5v-514q0 -94 -78 -94q-76 0 -76 106z" />
<glyph unicode="&#xf1;" horiz-adv-x="706" d="M35 1425v168q35 43 85 73t116 30q37 0 69.5 -9.5t61 -21.5t57.5 -21.5t57 -9.5q18 0 31.5 8.5t26 19.5t26 19.5t31.5 8.5q29 0 52.5 -21.5t23.5 -58.5v-142q0 -37 -35 -66.5t-72 -43.5q100 -68 101 -266v-1014q0 -33 -22.5 -55.5t-55.5 -22.5h-166q-20 0 -37.5 10 t-28.5 27q-10 -16 -27.5 -26.5t-39.5 -10.5h-164q-33 0 -55.5 22.5t-22.5 55.5v1218q0 35 27 58q-16 10 -27.5 28.5t-11.5 42.5zM115 1425h2q23 29 48 43.5t60 14.5q33 0 62.5 -10.5t58.5 -21.5t59.5 -21.5t65.5 -10.5q41 0 70.5 13.5t52.5 35.5v142h-2q-18 -25 -47 -40.5 t-64 -15.5t-63.5 9.5t-57 21.5t-59.5 21.5t-65 9.5q-47 0 -76 -14.5t-45 -36.5v-140zM125 78h164v1028q12 27 32.5 38t43.5 11q57 0 57 -74v-1003h166v1014q0 223 -156 223q-104 0 -162 -98q0 43 -6 79h-139v-1218zM174 1374h90q16 0 41 -14q6 4 11.5 7t13.5 7 q-35 14 -58.5 21.5t-46.5 7.5q-25 0 -51 -29z" />
<glyph unicode="&#xf2;" horiz-adv-x="681" d="M-51 1690q0 29 21.5 51t58.5 22h209q14 0 35.5 -11t29.5 -21l217 -318q16 -23 17 -49q0 -6 -1 -10t-4 -11q117 -80 117 -272v-768q0 -158 -77.5 -239.5t-229.5 -81.5q-160 0 -233.5 81.5t-73.5 239.5v768q0 115 38 189.5t122 107.5l-224 266q-23 23 -22 56zM29 1686 l270 -318h158l-219 318h-209zM115 303q0 -119 54 -180.5t173 -61.5q227 0 227 242v768q0 119 -57 181.5t-170 62.5q-119 0 -173 -62.5t-54 -181.5v-768zM272 307v758q0 41 14.5 61.5t55.5 20.5t54.5 -20.5t13.5 -61.5v-756q0 -41 -13.5 -61.5t-54.5 -20.5t-55.5 19.5 t-14.5 60.5z" />
<glyph unicode="&#xf3;" horiz-adv-x="681" d="M35 303v768q0 195 112 275q-2 6 -2 16q0 27 17 49l215 318q8 12 28.5 23t36.5 11h211q37 0 58.5 -22.5t21.5 -50.5q0 -29 -20 -56l-228 -266q164 -70 164 -297v-768q0 -158 -77.5 -239.5t-229.5 -81.5q-160 0 -233.5 81.5t-73.5 239.5zM115 303q0 -119 54 -180.5 t173 -61.5q227 0 227 242v768q0 119 -57 181.5t-170 62.5q-119 0 -173 -62.5t-54 -181.5v-768zM225 1368h158l270 318h-211zM272 307v758q0 41 14.5 61.5t55.5 20.5t54.5 -20.5t13.5 -61.5v-756q0 -41 -13.5 -61.5t-54.5 -20.5t-55.5 19.5t-14.5 60.5z" />
<glyph unicode="&#xf4;" horiz-adv-x="681" d="M-31 1364q0 25 13 47l200 318q8 12 29.5 23t38.5 11h192q16 0 37 -11t31 -26l190 -317q12 -23 13 -45q0 -31 -22.5 -52.5t-57.5 -21.5h-45q61 -84 61 -219v-768q0 -158 -77.5 -239.5t-229.5 -81.5q-160 0 -233.5 81.5t-73.5 239.5v768q0 137 57 219h-43q-37 0 -58.5 21.5 t-21.5 52.5zM49 1368h152l139 229l133 -229h160l-191 318h-192zM115 303q0 -119 54 -180.5t173 -61.5q227 0 227 242v768q0 119 -57 181.5t-170 62.5q-119 0 -173 -62.5t-54 -181.5v-768zM272 307v758q0 41 14.5 61.5t55.5 20.5t54.5 -20.5t13.5 -61.5v-756 q0 -41 -13.5 -61.5t-54.5 -20.5t-55.5 19.5t-14.5 60.5zM307 1393q10 2 17.5 2h17.5q6 0 13 -1t14 -1l-31 51z" />
<glyph unicode="&#xf5;" horiz-adv-x="681" d="M25 1425v168q35 43 84 73t114 30q37 0 70 -9.5t61.5 -21.5t57 -21.5t57.5 -9.5q18 0 31.5 8.5t26 19.5t25.5 19.5t32 8.5q29 0 53.5 -21.5t24.5 -58.5v-142q0 -23 -13.5 -42t-33 -34.5t-44 -26.5t-47.5 -17q125 -78 125 -277v-768q0 -158 -77.5 -239.5t-229.5 -81.5 q-160 0 -233.5 81.5t-73.5 239.5v768q0 139 58.5 220t180.5 100q-31 12 -59 12q-14 0 -26.5 -9.5t-27 -19.5t-28.5 -19t-31 -9q-31 0 -54 21.5t-23 57.5zM102 1425h2q45 57 111 58q31 0 60.5 -10.5t59.5 -21.5t60.5 -21.5t65.5 -10.5q41 0 69.5 13.5t51.5 35.5v142h-2 q-16 -25 -46 -40.5t-65 -15.5t-63.5 9.5t-57.5 21.5t-58.5 21.5t-66.5 9.5q-45 0 -74.5 -14.5t-46.5 -36.5v-140zM115 303q0 -119 54 -180.5t173 -61.5q227 0 227 242v768q0 119 -57 181.5t-170 62.5q-119 0 -173 -62.5t-54 -181.5v-768zM272 307v758q0 41 14.5 61.5 t55.5 20.5t54.5 -20.5t13.5 -61.5v-756q0 -41 -13.5 -61.5t-54.5 -20.5t-55.5 19.5t-14.5 60.5z" />
<glyph unicode="&#xf6;" horiz-adv-x="681" d="M31 1393v245q0 33 23.5 55.5t56.5 22.5h161q23 0 40.5 -11t27.5 -28q10 16 28.5 27.5t41.5 11.5h163q33 0 56.5 -22.5t23.5 -55.5v-245q0 -33 -23.5 -56.5t-56.5 -23.5h-6q82 -86 82 -242v-768q0 -158 -77.5 -239.5t-229.5 -81.5q-160 0 -233.5 81.5t-73.5 239.5v768 q0 160 76 242q-33 0 -56.5 23.5t-23.5 56.5zM111 1393h161v245h-161v-245zM115 303q0 -119 54 -180.5t173 -61.5q227 0 227 242v768q0 119 -57 181.5t-170 62.5q-119 0 -173 -62.5t-54 -181.5v-768zM272 307v758q0 41 14.5 61.5t55.5 20.5t54.5 -20.5t13.5 -61.5v-756 q0 -41 -13.5 -61.5t-54.5 -20.5t-55.5 19.5t-14.5 60.5zM410 1393h163v245h-163v-245z" />
<glyph unicode="&#xf7;" horiz-adv-x="1026" d="M47 836v135q0 33 22.5 56.5t55.5 23.5h293q-29 4 -48.5 25.5t-19.5 51.5v246q0 33 22.5 55.5t55.5 22.5h170q33 0 55.5 -22.5t22.5 -55.5v-246q0 -31 -20.5 -52t-49.5 -25h299q33 0 55.5 -23.5t22.5 -56.5v-135q0 -33 -22.5 -55.5t-55.5 -22.5h-299q29 -4 49.5 -27.5 t20.5 -52.5v-246q0 -33 -22.5 -55.5t-55.5 -22.5h-170q-33 0 -55.5 22.5t-22.5 55.5v246q0 29 19.5 52.5t48.5 27.5h-293q-33 0 -55.5 22.5t-22.5 55.5zM125 836h780v135h-780v-135zM428 432h170v246h-170v-246zM428 1128h170v246h-170v-246z" />
<glyph unicode="&#xf8;" horiz-adv-x="681" d="M33 -109q0 12 2 21l47 197q-47 78 -47 194v768q0 158 73.5 241t233.5 83h22.5t22.5 -2q6 25 11 53.5t16.5 53t29 42t45.5 17.5h78q35 0 57.5 -21.5t22.5 -54.5q0 -14 -2 -21l-47 -192q51 -78 51 -199v-768q0 -158 -77.5 -239.5t-229.5 -81.5h-24.5t-24.5 2l-25 -107 q-6 -27 -29.5 -44t-48.5 -17h-77q-35 0 -57.5 21.5t-22.5 53.5zM113 -106h77l43 184q23 -6 50.5 -11.5t58.5 -5.5q227 0 227 242v768q0 115 -55 180l53 230h-78l-43 -183q-45 16 -104 17q-119 0 -173 -62.5t-54 -181.5v-768q0 -117 53 -178zM272 571v494q0 41 14.5 61.5 t55.5 20.5q47 0 59 -37zM279 264l131 547v-502q0 -41 -13.5 -61.5t-54.5 -20.5q-51 0 -63 37z" />
<glyph unicode="&#xf9;" horiz-adv-x="702" d="M-41 1690q0 29 21.5 51t58.5 22h209q14 0 35.5 -11t29.5 -21l217 -318q12 -20 17 -39h31q33 0 56 -22.5t23 -55.5v-1218q0 -33 -23.5 -55.5t-55.5 -22.5h-140q-23 0 -45 16q-53 -29 -121 -28q-113 0 -172 73.5t-59 212.5v1022q0 33 22.5 55.5t57.5 22.5h80l-221 260 q-20 23 -21 56zM39 1686l270 -318h158l-219 318h-209zM121 274q0 -100 38 -153t113 -53q104 0 160 88q0 -41 6 -78h140v1218h-164v-1022q-12 -25 -32 -36t-42 -11q-57 0 -57 74v995h-162v-1022z" />
<glyph unicode="&#xfa;" horiz-adv-x="702" d="M41 274v1022q0 33 22.5 55.5t57.5 22.5h35q4 20 16 37l215 318q8 12 28.5 23t37.5 11h211q37 0 58 -22.5t21 -50.5q0 -29 -22 -56l-221 -260h78q33 0 56 -22.5t23 -55.5v-1218q0 -33 -23.5 -55.5t-55.5 -22.5h-140q-23 0 -45 16q-53 -29 -121 -28q-113 0 -172 73.5 t-59 212.5zM121 274q0 -100 38 -153t113 -53q104 0 160 88q0 -41 6 -78h140v1218h-164v-1022q-12 -25 -32 -36t-42 -11q-57 0 -57 74v995h-162v-1022zM236 1368h157l271 318h-211z" />
<glyph unicode="&#xfb;" horiz-adv-x="702" d="M-23 1364q0 27 15 47l201 318q8 12 29.5 23t37.5 11h193q16 0 36.5 -11t28.5 -26l193 -317q10 -25 10 -45q0 -29 -17.5 -49.5t-46.5 -24.5v-1212q0 -33 -23.5 -55.5t-55.5 -22.5h-140q-23 0 -45 16q-53 -29 -121 -28q-113 0 -172 73.5t-59 212.5v1018q-29 4 -46.5 24.5 t-17.5 47.5zM59 1368h152l139 229l133 -229h160l-190 318h-193zM121 274q0 -100 38 -153t113 -53q104 0 160 88q0 -41 6 -78h140v1218h-164v-1022q-12 -25 -32 -36t-42 -11q-57 0 -57 74v995h-162v-1022zM305 1370q27 -6 43 -31q8 10 17.5 18.5t23.5 12.5l-41 74z" />
<glyph unicode="&#xfc;" horiz-adv-x="702" d="M41 274v1022q0 25 16 47q-16 20 -16 50v245q0 33 22.5 55.5t57.5 22.5h162q23 0 40 -11t27 -28q10 16 27.5 27.5t40.5 11.5h166q33 0 56.5 -22.5t23.5 -55.5v-245q0 -33 -21 -54q14 -23 14 -43v-1218q0 -33 -23.5 -55.5t-55.5 -22.5h-140q-23 0 -45 16q-53 -29 -121 -28 q-113 0 -172 73.5t-59 212.5zM121 274q0 -100 38 -153t113 -53q104 0 160 88q0 -41 6 -78h140v1218h-164v-1022q-12 -25 -32 -36t-42 -11q-57 0 -57 74v995h-162v-1022zM121 1393h162v245h-162v-245zM344 1343l4 -4l6 9l-4 4zM418 1393h166v245h-166v-245z" />
<glyph unicode="&#xfd;" horiz-adv-x="657" d="M-8 1298q0 33 23.5 54.5t58.5 21.5h57q4 20 16 37l218 318q6 12 27.5 23t35.5 11h211q37 0 58.5 -22.5t21.5 -50.5q0 -33 -21 -56l-223 -260h105q41 0 60 -26.5t19 -63.5l-165 -1171q-12 -92 -32 -166t-55.5 -124t-93 -78t-149.5 -28q-29 0 -55.5 3.5t-48 12.5t-35 26.5 t-13.5 45.5v164q0 35 21.5 56.5t54.5 21.5q14 0 26.5 -4t41.5 -4q14 0 14 33q0 14 -2 24l-174 1188q0 4 -1 7t-1 7zM74 1296l170 -1179l-4 -27q-10 -59 -25.5 -94t-56.5 -35q-43 0 -68 8v-164q37 -10 74 -10q68 0 110.5 22.5t70.5 65.5t43 103.5t28 136.5l164 1173h-158 q-20 -162 -34.5 -285.5t-25 -223t-19.5 -182.5t-17 -163q-6 80 -12.5 163t-16.5 182.5t-22.5 223.5t-30.5 285h-170zM213 1368h156l270 318h-211z" />
<glyph unicode="&#xfe;" horiz-adv-x="708" d="M47 -195v1891q0 35 22.5 57.5t55.5 22.5h164q33 0 56.5 -22.5t23.5 -57.5v-305q10 2 23.5 3t25.5 1q129 0 191.5 -72t62.5 -231v-809q0 -160 -62.5 -230.5t-191.5 -70.5q-12 0 -25.5 1t-23.5 3v-181q0 -33 -23.5 -55t-56.5 -22h-164q-33 0 -55.5 22.5t-22.5 54.5z M125 -195h164v312q43 -55 129 -56q90 0 133 51.5t43 170.5v809q0 119 -43 171t-133 52q-84 0 -129 -58v439h-164v-1891zM289 283v809q10 29 30.5 41t45.5 12q66 0 65 -76v-764q0 -41 -15.5 -57.5t-49.5 -16.5q-25 0 -45.5 11.5t-30.5 40.5z" />
<glyph unicode="&#xff;" horiz-adv-x="657" d="M-8 1296q0 41 33 62q-6 14 -7 35v245q0 33 22.5 55.5t55.5 22.5h164q45 0 66 -39q10 16 28.5 27.5t40.5 11.5h166q33 0 55.5 -22.5t22.5 -55.5v-245q0 -23 -8 -37q16 -14 22 -31.5t6 -40.5l-165 -1171q-12 -92 -32 -166t-55.5 -124t-93 -78t-149.5 -28q-29 0 -55.5 3.5 t-48 12.5t-35 26.5t-13.5 45.5v164q0 35 21.5 56.5t54.5 21.5q14 0 24.5 -4t30.5 -4q25 0 25 37v15t-2 18l-172 1175q0 4 -1 6t-1 6zM74 1296l170 -1179l-4 -27q-10 -59 -25.5 -94t-56.5 -35q-43 0 -68 8v-164q37 -10 74 -10q68 0 110.5 22.5t70.5 65.5t43 103.5t28 136.5 l164 1173h-158q-20 -162 -34.5 -285.5t-25 -223t-19.5 -182.5t-17 -163q-6 80 -12.5 163t-16.5 182.5t-22.5 223.5t-30.5 285h-170zM96 1393h164v245h-164v-245zM395 1393h166v245h-166v-245z" />
<glyph unicode="&#x152;" horiz-adv-x="966" d="M35 336v1104q0 174 83 264t253 90q72 0 125 -18h370q33 0 56.5 -22.5t23.5 -57.5v-183q0 -33 -23.5 -55t-56.5 -22h-176v-363h92q33 0 55.5 -22.5t22.5 -55.5v-184q0 -33 -22.5 -55.5t-55.5 -22.5h-92v-395h187q33 0 56 -22.5t23 -55.5v-182q0 -33 -23.5 -55.5 t-55.5 -22.5h-381q-53 -18 -125 -18q-170 0 -253 90t-83 264zM115 336q0 -274 256 -275q63 0 108 17h398v182h-265v551h170v184h-170v518h254v183h-387q-43 18 -108 18q-256 0 -256 -274v-1104zM295 336v1104q0 92 76 92q43 0 59 -8v-1274q-18 -8 -59 -8q-76 0 -76 94z" />
<glyph unicode="&#x153;" horiz-adv-x="964" d="M35 303v768q0 158 73.5 241t233.5 83q82 0 147 -33q59 33 142 33q301 0 301 -330v-401q0 -25 -14 -46q14 -23 14 -45v-266q0 -326 -301 -325q-82 0 -142 32q-29 -14 -67.5 -23t-79.5 -9q-160 0 -233.5 81.5t-73.5 239.5zM115 303q0 -119 54 -180.5t173 -61.5q98 0 145 45 q53 -45 144 -45q223 0 223 246v266h-156v-264q0 -82 -67 -82q-61 0 -62 80v357h285v401q0 250 -223 250q-90 0 -142 -49q-51 49 -147 49q-119 0 -173 -62.5t-54 -181.5v-768zM272 307v758q0 41 14.5 61.5t55.5 20.5t54.5 -20.5t13.5 -61.5v-756q0 -41 -13.5 -61.5 t-54.5 -20.5t-55.5 19.5t-14.5 60.5zM569 782v283q0 80 62 80q68 0 67 -80v-283h-129z" />
<glyph unicode="&#x178;" horiz-adv-x="765" d="M-8 1688.5v9.5q0 35 22.5 56.5t57.5 21.5h2v264q0 33 22.5 55.5t55.5 22.5h163q45 0 66 -39q10 16 28.5 27.5t41.5 11.5h163q35 0 57.5 -22.5t22.5 -55.5v-246q0 -4 -1 -9t-1 -9h4q35 0 56.5 -21.5t21.5 -56.5v-9.5t-2 -11.5l-221 -903v-696q0 -33 -22.5 -55.5 t-57.5 -22.5h-184q-33 0 -55.5 22.5t-22.5 55.5v700l-215 901q-2 4 -2 9.5zM72 1696l215 -910v-708h184v708l225 910h-178q-18 -98 -38.5 -200.5t-40 -190.5t-34 -155t-18.5 -93q-4 29 -17.5 94.5t-32 153.5t-37.5 189l-38 202h-190zM152 1794h163v246h-163v-246zM336 1716 l53 -272l53 270q-18 2 -34.5 12.5t-26.5 24.5q-8 -10 -19.5 -20.5t-25.5 -14.5zM451 1794h163v246h-163v-246z" />
<glyph unicode="&#x2c6;" horiz-adv-x="870" d="M63 1364q0 25 13 47l200 318q8 12 30 23t38 11h193q16 0 36.5 -11t30.5 -26l191 -317q12 -23 12 -45q0 -31 -22.5 -52.5t-57.5 -21.5h-160q-16 0 -36.5 11.5t-30.5 27.5l-68 115l-70 -117q-10 -14 -30.5 -25.5t-36.5 -11.5h-152q-37 0 -58.5 21.5t-21.5 52.5zM143 1368 h152l139 229l133 -229h160l-190 318h-193z" />
<glyph unicode="&#x2dc;" horiz-adv-x="729" d="M45 1425v168q35 43 85 73t116 30q37 0 69.5 -9.5t61.5 -21.5t57.5 -21.5t57.5 -9.5q18 0 31.5 8.5t25.5 19.5t25.5 19.5t31.5 8.5q29 0 52.5 -21.5t23.5 -58.5v-142q0 -27 -18.5 -49t-47 -39.5t-64.5 -28t-71 -10.5q-41 0 -74.5 9.5t-62.5 21.5t-55.5 21.5t-52.5 9.5 q-12 0 -25.5 -9.5t-27 -19.5t-28 -19t-32.5 -9q-31 0 -54.5 21.5t-23.5 57.5zM123 1425h2q23 29 49.5 43.5t61.5 14.5q31 0 60.5 -10.5t59 -21.5t60 -21.5t65.5 -10.5q41 0 71 13.5t52 35.5v142h-2q-18 -25 -47 -40.5t-63 -15.5q-35 0 -64 9.5t-57.5 21.5t-59 21.5 t-65.5 9.5q-47 0 -76 -14.5t-47 -36.5v-140z" />
<glyph unicode="&#x2000;" horiz-adv-x="1082" />
<glyph unicode="&#x2001;" horiz-adv-x="2165" />
<glyph unicode="&#x2002;" horiz-adv-x="1082" />
<glyph unicode="&#x2003;" horiz-adv-x="2165" />
<glyph unicode="&#x2004;" horiz-adv-x="721" />
<glyph unicode="&#x2005;" horiz-adv-x="541" />
<glyph unicode="&#x2006;" horiz-adv-x="360" />
<glyph unicode="&#x2007;" horiz-adv-x="360" />
<glyph unicode="&#x2008;" horiz-adv-x="270" />
<glyph unicode="&#x2009;" horiz-adv-x="433" />
<glyph unicode="&#x200a;" horiz-adv-x="120" />
<glyph unicode="&#x2010;" horiz-adv-x="466" d="M0 823v140q0 35 22.5 57t55.5 22h315q33 0 55.5 -22.5t22.5 -56.5v-140q0 -33 -22.5 -55.5t-55.5 -22.5h-315q-33 0 -55.5 23t-22.5 55zM78 823h315v140h-315v-140z" />
<glyph unicode="&#x2011;" horiz-adv-x="466" d="M0 823v140q0 35 22.5 57t55.5 22h315q33 0 55.5 -22.5t22.5 -56.5v-140q0 -33 -22.5 -55.5t-55.5 -22.5h-315q-33 0 -55.5 23t-22.5 55zM78 823h315v140h-315v-140z" />
<glyph unicode="&#x2012;" horiz-adv-x="466" d="M0 823v140q0 35 22.5 57t55.5 22h315q33 0 55.5 -22.5t22.5 -56.5v-140q0 -33 -22.5 -55.5t-55.5 -22.5h-315q-33 0 -55.5 23t-22.5 55zM78 823h315v140h-315v-140z" />
<glyph unicode="&#x2013;" horiz-adv-x="661" d="M0 823v140q0 35 22.5 57t55.5 22h506q33 0 56.5 -22.5t23.5 -56.5v-140q0 -33 -24 -55.5t-56 -22.5h-506q-33 0 -55.5 23t-22.5 55zM78 823h506v140h-506v-140z" />
<glyph unicode="&#x2014;" horiz-adv-x="978" d="M0 823v140q0 35 22.5 57t55.5 22h827q33 0 55.5 -22.5t22.5 -56.5v-140q0 -33 -22.5 -55.5t-55.5 -22.5h-827q-33 0 -55.5 23t-22.5 55zM78 823h827v140h-827v-140z" />
<glyph unicode="&#x2018;" horiz-adv-x="397" d="M35 1348v239q0 84 47 144.5t160 60.5h20q33 0 55.5 -23.5t22.5 -56.5v-74q0 -16 -6 -30q29 -18 28 -60v-200q0 -35 -23.5 -57.5t-55.5 -22.5h-168q-33 0 -56.5 22.5t-23.5 57.5zM115 1348h168v200h-76v49q0 41 35 41h20v74h-20q-70 0 -98.5 -36t-28.5 -89v-239z" />
<glyph unicode="&#x2019;" horiz-adv-x="397" d="M35 1495v201q0 35 23.5 57.5t56.5 22.5h168q33 0 56 -22.5t23 -57.5v-238q0 -84 -47 -144.5t-159 -60.5h-21q-33 0 -55.5 22.5t-22.5 55.5v74q0 20 4 29q-27 27 -26 61zM115 1495h75v-47q0 -43 -36 -43h-19v-74h21q70 0 98.5 37t28.5 90v238h-168v-201z" />
<glyph unicode="&#x201a;" horiz-adv-x="411" d="M43 123v201q0 35 22.5 57t57.5 22h168q33 0 55.5 -22.5t22.5 -56.5v-238q0 -43 -11.5 -80t-36 -65.5t-63.5 -45t-94 -16.5h-21q-33 0 -55 23.5t-22 56.5v74q0 20 4 30q-27 20 -27 60zM123 123h76v-49q0 -41 -37 -41h-19v-74h21q70 0 98.5 37t28.5 90v238h-168v-201z" />
<glyph unicode="&#x201c;" horiz-adv-x="684" d="M35 1348v239q0 84 47 144.5t160 60.5h20q33 0 55.5 -23.5t22.5 -56.5v-29q20 47 65.5 78t122.5 31h21q33 0 55.5 -23.5t22.5 -56.5v-74q0 -16 -6 -30q29 -18 28 -60v-200q0 -35 -22.5 -57.5t-57.5 -22.5h-168q-37 0 -59 26q-27 -27 -59 -26h-168q-33 0 -56.5 22.5 t-23.5 57.5zM115 1348h168v200h-76v49q0 41 35 41h20v74h-20q-70 0 -98.5 -36t-28.5 -89v-239zM401 1348h168v200h-75v49q0 41 34 41h21v74h-21q-70 0 -98.5 -36t-28.5 -89v-239z" />
<glyph unicode="&#x201d;" horiz-adv-x="684" d="M35 1495v201q0 35 23.5 57.5t56.5 22.5h168q35 0 59 -29q23 29 59 29h168q35 0 57.5 -22.5t22.5 -57.5v-238q0 -84 -47 -144.5t-160 -60.5h-20q-33 0 -55.5 22.5t-22.5 55.5v29q-20 -47 -65.5 -77t-122.5 -30h-21q-33 0 -55.5 22.5t-22.5 55.5v74q0 20 4 29 q-27 27 -26 61zM115 1495h75v-47q0 -43 -36 -43h-19v-74h21q70 0 98.5 37t28.5 90v238h-168v-201zM401 1495h76v-47q0 -43 -37 -43h-18v-74h20q70 0 98.5 37t28.5 90v238h-168v-201z" />
<glyph unicode="&#x201e;" horiz-adv-x="712" d="M43 123v201q0 35 22.5 57t57.5 22h168q23 0 39 -10t26 -24q10 14 27.5 24t38.5 10h170q33 0 55.5 -22.5t22.5 -56.5v-238q0 -43 -11.5 -80t-36 -65.5t-63.5 -45t-94 -16.5h-21q-33 0 -55 23.5t-22 56.5v78q-12 -68 -60.5 -113t-142.5 -45h-21q-33 0 -55 23.5t-22 56.5v74 q0 20 4 30q-27 20 -27 60zM123 123h76v-49q0 -41 -37 -41h-19v-74h21q70 0 98.5 37t28.5 90v238h-168v-201zM422 123h78v-49q0 -41 -37 -41h-19v-74h21q70 0 98.5 37t28.5 90v238h-170v-201z" />
<glyph unicode="&#x2022;" horiz-adv-x="522" d="M35 1004q0 51 15.5 96t45 78.5t72.5 53t96 19.5t95 -19.5t71 -53t44 -78.5t15 -96q0 -109 -59.5 -179.5t-165.5 -70.5q-109 0 -169 70.5t-60 179.5zM115 1004q0 -72 38.5 -122.5t110.5 -50.5q70 0 109 50.5t39 122.5t-39 119.5t-109 47.5q-72 0 -110.5 -48t-38.5 -119z " />
<glyph unicode="&#x2026;" horiz-adv-x="1536" d="M35 78v246q0 35 23.5 57t56.5 22h168q33 0 56 -22.5t23 -56.5v-246q0 -33 -23.5 -55.5t-55.5 -22.5h-168q-33 0 -56.5 22.5t-23.5 55.5zM115 78h168v246h-168v-246zM606 78v246q0 35 22.5 57t55.5 22h170q33 0 55.5 -22.5t22.5 -56.5v-246q0 -33 -22.5 -55.5t-55.5 -22.5 h-170q-33 0 -55.5 22.5t-22.5 55.5zM684 78h170v246h-170v-246zM1176 78v246q0 35 22.5 57t54.5 22h170q33 0 55.5 -22.5t22.5 -56.5v-246q0 -33 -22.5 -55.5t-55.5 -22.5h-170q-33 0 -55 22.5t-22 55.5zM1253 78h170v246h-170v-246z" />
<glyph unicode="&#x202f;" horiz-adv-x="433" />
<glyph unicode="&#x2039;" horiz-adv-x="493" d="M12 641v186q0 16 11.5 37t23.5 29l313 209q25 14 48 14q31 0 52 -22.5t21 -57.5v-153q0 -16 -11 -37t-24 -29l-127 -82l130 -90q12 -8 22 -28.5t10 -36.5v-160q0 -37 -22.5 -58.5t-50.5 -21.5q-31 0 -50 16l-313 219q-12 8 -22.5 30t-10.5 36zM90 641l313 -221v160 l-227 155l227 148v153l-313 -209v-186z" />
<glyph unicode="&#x203a;" horiz-adv-x="493" d="M12 420v160q0 16 10.5 36.5t22.5 28.5l131 90q-23 14 -51.5 29.5t-53 34t-42 39t-17.5 45.5v153q0 35 21.5 57.5t50.5 22.5q25 0 49 -14l313 -209q12 -8 23.5 -28.5t11.5 -37.5v-186q0 -14 -10 -35.5t-22 -30.5l-314 -219q-10 -10 -23.5 -13t-25.5 -3q-29 0 -51.5 21.5 t-22.5 58.5zM90 420l313 221v186l-313 209v-153l227 -148l-227 -155v-160z" />
<glyph unicode="&#x205f;" horiz-adv-x="541" />
<glyph unicode="&#x20ac;" horiz-adv-x="788" d="M-8 659l22 138q4 25 23.5 44t46.5 23v74h-12q-41 0 -60.5 25.5t-19.5 62.5l22 139q4 27 19.5 46.5t50.5 23.5v166q0 98 21.5 172t71.5 123t132 73.5t203 24.5q127 0 204 -17.5t77 -82.5l-31 -185q-4 -29 -26.5 -47t-51.5 -18q-45 0 -87 5t-81 5q-59 0 -75.5 -12 t-16.5 -41v-166h205q41 0 59.5 -27.5t18.5 -64.5l-25 -139q-4 -29 -26.5 -47.5t-49.5 -18.5h-182v-74h147q41 0 59.5 -27.5t18.5 -64.5l-24 -137q-4 -27 -27 -46.5t-49 -19.5h-125v-237q0 -14 6 -15q8 0 8 58v112q0 33 22.5 55.5t55.5 22.5h180q33 0 55.5 -22.5t22.5 -55.5 v-151q0 -174 -82 -264t-262 -90q-178 0 -262 90t-84 264v233h-12q-41 0 -60.5 27t-19.5 63zM72 649h92v-313q0 -135 64.5 -205t201.5 -70q139 0 202.5 70t63.5 205v151h-180v-112q0 -70 -15.5 -103.5t-70.5 -33.5q-41 0 -62.5 26.5t-21.5 67.5v317h203l22 137h-225v230h260 l23 139h-283v246q0 35 6 59.5t23.5 41t51.5 24.5t89 8q86 0 170 -12l29 182q-41 4 -92.5 7t-110.5 3q-197 0 -272.5 -77.5t-75.5 -235.5v-246h-72l-20 -139h92v-230h-72z" />
<glyph unicode="&#x2122;" horiz-adv-x="1069" d="M25 1610v86q0 35 23.5 57.5t55.5 22.5h529q29 0 52.5 -20.5t27.5 -49.5v-14q0 33 24.5 58.5t57.5 25.5h149q33 0 55.5 -22.5t22.5 -57.5v-746q0 -33 -22.5 -56.5t-55.5 -23.5h-459q-33 0 -57.5 21.5t-28.5 58.5q-4 -37 -26.5 -58.5t-55.5 -21.5h-112q-33 0 -56.5 24 t-23.5 56v582h-21q-33 0 -56 22.5t-23 55.5zM104 1610h101v-660h112v660h101v86h-314v-86zM485 950h103v215q0 72 -2 145.5t-4 145.5l84 -506h96l86 506q-6 -145 -6 -291v-215h102v746h-149q-18 -127 -30.5 -213t-22 -148.5t-16.5 -106.5t-13 -83q-6 41 -12.5 84 t-15.5 104.5t-21.5 148.5t-30.5 214h-148v-746z" />
<glyph unicode="&#x25fc;" horiz-adv-x="1372" d="M0 0v1372h1372v-1372h-1372z" />
</font>
</defs>
</svg>
